<?xml version="1.0" encoding="utf-8" standalone="no"?>
<!DOCTYPE svg PUBLIC "-//W3C//DTD SVG 1.1//EN"
  "http://www.w3.org/Graphics/SVG/1.1/DTD/svg11.dtd">
<svg xmlns:xlink="http://www.w3.org/1999/xlink" width="648pt" height="360pt" viewBox="0 0 648 360" xmlns="http://www.w3.org/2000/svg" version="1.1">
 <metadata>
  <rdf:RDF xmlns:dc="http://purl.org/dc/elements/1.1/" xmlns:cc="http://creativecommons.org/ns#" xmlns:rdf="http://www.w3.org/1999/02/22-rdf-syntax-ns#">
   <cc:Work>
    <dc:type rdf:resource="http://purl.org/dc/dcmitype/StillImage"/>
    <dc:date>2025-01-03T12:36:00.576411</dc:date>
    <dc:format>image/svg+xml</dc:format>
    <dc:creator>
     <cc:Agent>
      <dc:title>Matplotlib v3.7.1, https://matplotlib.org/</dc:title>
     </cc:Agent>
    </dc:creator>
   </cc:Work>
  </rdf:RDF>
 </metadata>
 <defs>
  <style type="text/css">*{stroke-linejoin: round; stroke-linecap: butt}</style>
 </defs>
 <g id="figure_1">
  <g id="patch_1">
   <path d="M 0 360 
L 648 360 
L 648 0 
L 0 0 
z
" style="fill: #ffffff"/>
  </g>
  <g id="axes_1">
   <g id="patch_2">
    <path d="M 81 169.2 
L 385.363636 169.2 
L 385.363636 43.2 
L 81 43.2 
z
" style="fill: #ffffff"/>
   </g>
   <g id="patch_3">
    <path d="M 385.363636 49.881818 
Q 385.363636 53.7 385.363636 57.518182 
" style="fill: none; stroke: #000000; stroke-width: 0.75; stroke-linecap: round"/>
   </g>
   <g id="patch_4">
    <path d="M 385.363636 49.881818 
Q 407.943861 46.540909 430.524085 43.2 
" style="fill: none; stroke-dasharray: 2.775,1.2; stroke-dashoffset: 0; stroke: #000000; stroke-width: 0.75; stroke-linecap: round"/>
   </g>
   <g id="patch_5">
    <path d="M 385.363636 57.518182 
Q 407.943861 113.359091 430.524085 169.2 
" style="fill: none; stroke-dasharray: 2.775,1.2; stroke-dashoffset: 0; stroke: #000000; stroke-width: 0.75; stroke-linecap: round"/>
   </g>
   <g id="matplotlib.axis_1">
    <g id="xtick_1">
     <g id="line2d_1">
      <defs>
       <path id="m4443644e91" d="M 0 0 
L 0 3.5 
" style="stroke: #000000; stroke-width: 0.8"/>
      </defs>
      <g>
       <use xlink:href="#m4443644e91" x="95.34159" y="169.2" style="stroke: #000000; stroke-width: 0.8"/>
      </g>
     </g>
    </g>
    <g id="xtick_2">
     <g id="line2d_2">
      <g>
       <use xlink:href="#m4443644e91" x="167.847102" y="169.2" style="stroke: #000000; stroke-width: 0.8"/>
      </g>
     </g>
    </g>
    <g id="xtick_3">
     <g id="line2d_3">
      <g>
       <use xlink:href="#m4443644e91" x="240.352613" y="169.2" style="stroke: #000000; stroke-width: 0.8"/>
      </g>
     </g>
    </g>
    <g id="xtick_4">
     <g id="line2d_4">
      <g>
       <use xlink:href="#m4443644e91" x="312.858125" y="169.2" style="stroke: #000000; stroke-width: 0.8"/>
      </g>
     </g>
    </g>
    <g id="xtick_5">
     <g id="line2d_5">
      <g>
       <use xlink:href="#m4443644e91" x="385.363636" y="169.2" style="stroke: #000000; stroke-width: 0.8"/>
      </g>
     </g>
    </g>
   </g>
   <g id="matplotlib.axis_2">
    <g id="ytick_1">
     <g id="line2d_6">
      <defs>
       <path id="m6af5628a52" d="M 0 0 
L -3.5 0 
" style="stroke: #000000; stroke-width: 0.8"/>
      </defs>
      <g>
       <use xlink:href="#m6af5628a52" x="81" y="138.654545" style="stroke: #000000; stroke-width: 0.8"/>
      </g>
     </g>
     <g id="text_1">
      <!-- 0.4 -->
      <g transform="translate(58.096875 142.453764) scale(0.1 -0.1)">
       <defs>
        <path id="DejaVuSans-30" d="M 2034 4250 
Q 1547 4250 1301 3770 
Q 1056 3291 1056 2328 
Q 1056 1369 1301 889 
Q 1547 409 2034 409 
Q 2525 409 2770 889 
Q 3016 1369 3016 2328 
Q 3016 3291 2770 3770 
Q 2525 4250 2034 4250 
z
M 2034 4750 
Q 2819 4750 3233 4129 
Q 3647 3509 3647 2328 
Q 3647 1150 3233 529 
Q 2819 -91 2034 -91 
Q 1250 -91 836 529 
Q 422 1150 422 2328 
Q 422 3509 836 4129 
Q 1250 4750 2034 4750 
z
" transform="scale(0.015625)"/>
        <path id="DejaVuSans-2e" d="M 684 794 
L 1344 794 
L 1344 0 
L 684 0 
L 684 794 
z
" transform="scale(0.015625)"/>
        <path id="DejaVuSans-34" d="M 2419 4116 
L 825 1625 
L 2419 1625 
L 2419 4116 
z
M 2253 4666 
L 3047 4666 
L 3047 1625 
L 3713 1625 
L 3713 1100 
L 3047 1100 
L 3047 0 
L 2419 0 
L 2419 1100 
L 313 1100 
L 313 1709 
L 2253 4666 
z
" transform="scale(0.015625)"/>
       </defs>
       <use xlink:href="#DejaVuSans-30"/>
       <use xlink:href="#DejaVuSans-2e" x="63.623047"/>
       <use xlink:href="#DejaVuSans-34" x="95.410156"/>
      </g>
     </g>
    </g>
    <g id="ytick_2">
     <g id="line2d_7">
      <g>
       <use xlink:href="#m6af5628a52" x="81" y="100.472727" style="stroke: #000000; stroke-width: 0.8"/>
      </g>
     </g>
     <g id="text_2">
      <!-- 0.6 -->
      <g transform="translate(58.096875 104.271946) scale(0.1 -0.1)">
       <defs>
        <path id="DejaVuSans-36" d="M 2113 2584 
Q 1688 2584 1439 2293 
Q 1191 2003 1191 1497 
Q 1191 994 1439 701 
Q 1688 409 2113 409 
Q 2538 409 2786 701 
Q 3034 994 3034 1497 
Q 3034 2003 2786 2293 
Q 2538 2584 2113 2584 
z
M 3366 4563 
L 3366 3988 
Q 3128 4100 2886 4159 
Q 2644 4219 2406 4219 
Q 1781 4219 1451 3797 
Q 1122 3375 1075 2522 
Q 1259 2794 1537 2939 
Q 1816 3084 2150 3084 
Q 2853 3084 3261 2657 
Q 3669 2231 3669 1497 
Q 3669 778 3244 343 
Q 2819 -91 2113 -91 
Q 1303 -91 875 529 
Q 447 1150 447 2328 
Q 447 3434 972 4092 
Q 1497 4750 2381 4750 
Q 2619 4750 2861 4703 
Q 3103 4656 3366 4563 
z
" transform="scale(0.015625)"/>
       </defs>
       <use xlink:href="#DejaVuSans-30"/>
       <use xlink:href="#DejaVuSans-2e" x="63.623047"/>
       <use xlink:href="#DejaVuSans-36" x="95.410156"/>
      </g>
     </g>
    </g>
    <g id="ytick_3">
     <g id="line2d_8">
      <g>
       <use xlink:href="#m6af5628a52" x="81" y="62.290909" style="stroke: #000000; stroke-width: 0.8"/>
      </g>
     </g>
     <g id="text_3">
      <!-- 0.8 -->
      <g transform="translate(58.096875 66.090128) scale(0.1 -0.1)">
       <defs>
        <path id="DejaVuSans-38" d="M 2034 2216 
Q 1584 2216 1326 1975 
Q 1069 1734 1069 1313 
Q 1069 891 1326 650 
Q 1584 409 2034 409 
Q 2484 409 2743 651 
Q 3003 894 3003 1313 
Q 3003 1734 2745 1975 
Q 2488 2216 2034 2216 
z
M 1403 2484 
Q 997 2584 770 2862 
Q 544 3141 544 3541 
Q 544 4100 942 4425 
Q 1341 4750 2034 4750 
Q 2731 4750 3128 4425 
Q 3525 4100 3525 3541 
Q 3525 3141 3298 2862 
Q 3072 2584 2669 2484 
Q 3125 2378 3379 2068 
Q 3634 1759 3634 1313 
Q 3634 634 3220 271 
Q 2806 -91 2034 -91 
Q 1263 -91 848 271 
Q 434 634 434 1313 
Q 434 1759 690 2068 
Q 947 2378 1403 2484 
z
M 1172 3481 
Q 1172 3119 1398 2916 
Q 1625 2713 2034 2713 
Q 2441 2713 2670 2916 
Q 2900 3119 2900 3481 
Q 2900 3844 2670 4047 
Q 2441 4250 2034 4250 
Q 1625 4250 1398 4047 
Q 1172 3844 1172 3481 
z
" transform="scale(0.015625)"/>
       </defs>
       <use xlink:href="#DejaVuSans-30"/>
       <use xlink:href="#DejaVuSans-2e" x="63.623047"/>
       <use xlink:href="#DejaVuSans-38" x="95.410156"/>
      </g>
     </g>
    </g>
    <g id="text_4">
     <!-- Win rate -->
     <g transform="translate(52.017187 127.334375) rotate(-90) scale(0.1 -0.1)">
      <defs>
       <path id="DejaVuSans-57" d="M 213 4666 
L 850 4666 
L 1831 722 
L 2809 4666 
L 3519 4666 
L 4500 722 
L 5478 4666 
L 6119 4666 
L 4947 0 
L 4153 0 
L 3169 4050 
L 2175 0 
L 1381 0 
L 213 4666 
z
" transform="scale(0.015625)"/>
       <path id="DejaVuSans-69" d="M 603 3500 
L 1178 3500 
L 1178 0 
L 603 0 
L 603 3500 
z
M 603 4863 
L 1178 4863 
L 1178 4134 
L 603 4134 
L 603 4863 
z
" transform="scale(0.015625)"/>
       <path id="DejaVuSans-6e" d="M 3513 2113 
L 3513 0 
L 2938 0 
L 2938 2094 
Q 2938 2591 2744 2837 
Q 2550 3084 2163 3084 
Q 1697 3084 1428 2787 
Q 1159 2491 1159 1978 
L 1159 0 
L 581 0 
L 581 3500 
L 1159 3500 
L 1159 2956 
Q 1366 3272 1645 3428 
Q 1925 3584 2291 3584 
Q 2894 3584 3203 3211 
Q 3513 2838 3513 2113 
z
" transform="scale(0.015625)"/>
       <path id="DejaVuSans-20" transform="scale(0.015625)"/>
       <path id="DejaVuSans-72" d="M 2631 2963 
Q 2534 3019 2420 3045 
Q 2306 3072 2169 3072 
Q 1681 3072 1420 2755 
Q 1159 2438 1159 1844 
L 1159 0 
L 581 0 
L 581 3500 
L 1159 3500 
L 1159 2956 
Q 1341 3275 1631 3429 
Q 1922 3584 2338 3584 
Q 2397 3584 2469 3576 
Q 2541 3569 2628 3553 
L 2631 2963 
z
" transform="scale(0.015625)"/>
       <path id="DejaVuSans-61" d="M 2194 1759 
Q 1497 1759 1228 1600 
Q 959 1441 959 1056 
Q 959 750 1161 570 
Q 1363 391 1709 391 
Q 2188 391 2477 730 
Q 2766 1069 2766 1631 
L 2766 1759 
L 2194 1759 
z
M 3341 1997 
L 3341 0 
L 2766 0 
L 2766 531 
Q 2569 213 2275 61 
Q 1981 -91 1556 -91 
Q 1019 -91 701 211 
Q 384 513 384 1019 
Q 384 1609 779 1909 
Q 1175 2209 1959 2209 
L 2766 2209 
L 2766 2266 
Q 2766 2663 2505 2880 
Q 2244 3097 1772 3097 
Q 1472 3097 1187 3025 
Q 903 2953 641 2809 
L 641 3341 
Q 956 3463 1253 3523 
Q 1550 3584 1831 3584 
Q 2591 3584 2966 3190 
Q 3341 2797 3341 1997 
z
" transform="scale(0.015625)"/>
       <path id="DejaVuSans-74" d="M 1172 4494 
L 1172 3500 
L 2356 3500 
L 2356 3053 
L 1172 3053 
L 1172 1153 
Q 1172 725 1289 603 
Q 1406 481 1766 481 
L 2356 481 
L 2356 0 
L 1766 0 
Q 1100 0 847 248 
Q 594 497 594 1153 
L 594 3053 
L 172 3053 
L 172 3500 
L 594 3500 
L 594 4494 
L 1172 4494 
z
" transform="scale(0.015625)"/>
       <path id="DejaVuSans-65" d="M 3597 1894 
L 3597 1613 
L 953 1613 
Q 991 1019 1311 708 
Q 1631 397 2203 397 
Q 2534 397 2845 478 
Q 3156 559 3463 722 
L 3463 178 
Q 3153 47 2828 -22 
Q 2503 -91 2169 -91 
Q 1331 -91 842 396 
Q 353 884 353 1716 
Q 353 2575 817 3079 
Q 1281 3584 2069 3584 
Q 2775 3584 3186 3129 
Q 3597 2675 3597 1894 
z
M 3022 2063 
Q 3016 2534 2758 2815 
Q 2500 3097 2075 3097 
Q 1594 3097 1305 2825 
Q 1016 2553 972 2059 
L 3022 2063 
z
" transform="scale(0.015625)"/>
      </defs>
      <use xlink:href="#DejaVuSans-57"/>
      <use xlink:href="#DejaVuSans-69" x="96.626953"/>
      <use xlink:href="#DejaVuSans-6e" x="124.410156"/>
      <use xlink:href="#DejaVuSans-20" x="187.789062"/>
      <use xlink:href="#DejaVuSans-72" x="219.576172"/>
      <use xlink:href="#DejaVuSans-61" x="260.689453"/>
      <use xlink:href="#DejaVuSans-74" x="321.96875"/>
      <use xlink:href="#DejaVuSans-65" x="361.177734"/>
     </g>
    </g>
   </g>
   <g id="line2d_9">
    <path d="M 95.486601 162.518182 
L 95.631612 163.234091 
L 96.501678 148.223864 
L 97.081722 141.382955 
L 98.0968 132.736364 
L 98.966866 126.802909 
L 99.981943 121.377273 
L 101.577064 114.460148 
L 104.042252 106.634318 
L 104.912318 104.189669 
L 107.232494 98.94429 
L 112.597902 90.091444 
L 114.773067 87.188874 
L 116.368189 85.327712 
L 117.673288 83.928099 
L 118.833376 82.616835 
L 121.733596 79.889685 
L 126.51896 76.23704 
L 128.839137 74.679752 
L 130.289247 73.821897 
L 135.654655 70.94431 
L 137.539798 70.089972 
L 139.714963 69.143984 
L 145.225382 67.090552 
L 147.400547 66.373917 
L 151.605867 65.136586 
L 162.626705 62.469475 
L 169.442223 61.153674 
L 174.227587 60.351462 
L 185.683458 58.749745 
L 195.109174 57.714641 
L 217.730894 55.856888 
L 227.736654 55.214936 
L 243.107823 54.373896 
L 276.170336 53.010997 
L 291.106471 52.556596 
L 312.568103 51.986151 
L 320.108676 51.811971 
L 363.902005 50.970113 
L 385.218625 50.650086 
L 385.218625 50.650086 
" clip-path="url(#p9019da6d80)" style="fill: none; stroke: #800080; stroke-opacity: 0.5; stroke-width: 3; stroke-linecap: square"/>
   </g>
   <g id="line2d_10">
    <path d="M 95.486601 162.518182 
L 95.631612 163.234091 
L 96.501678 148.223864 
L 97.081722 141.382955 
L 98.0968 132.736364 
L 98.966866 126.802909 
L 99.981943 121.377273 
L 101.577064 114.460148 
L 103.897241 107.115716 
L 105.057329 103.872049 
L 106.072406 101.484029 
L 108.392582 97.025758 
L 109.55267 95.145779 
L 110.132715 94.117513 
L 112.30788 90.374942 
L 115.2081 86.56075 
L 116.803222 84.847205 
L 121.878607 80.035544 
L 124.053773 78.431405 
L 124.778828 77.928056 
L 125.793905 77.175 
L 131.159313 73.912403 
L 137.82982 70.637155 
L 147.69057 67.055439 
L 151.315845 65.951813 
L 160.741562 63.66664 
L 171.762399 61.666923 
L 183.508292 60.056048 
L 195.689218 58.736055 
L 220.921136 56.718612 
L 240.207602 55.619793 
L 249.198286 55.195874 
L 265.874553 54.531575 
L 272.980093 54.270234 
L 281.970777 53.956177 
L 313.293158 53.111586 
L 351.141035 52.32895 
L 361.436818 52.14677 
L 385.218625 51.784654 
L 385.218625 51.784654 
" clip-path="url(#p9019da6d80)" style="fill: none; stroke-dasharray: 11.1,4.8; stroke-dashoffset: 0; stroke: #ffa500; stroke-opacity: 0.7; stroke-width: 3"/>
   </g>
   <g id="line2d_11">
    <path d="M 95.486601 163.663636 
L 95.631612 164.236364 
L 95.776623 163.027273 
L 96.211656 154.054545 
L 96.936711 143.583471 
L 97.806778 135.465241 
L 99.111877 126.458392 
L 100.561987 119.112879 
L 101.867086 113.836364 
L 102.44713 111.880519 
L 105.20234 104.15615 
L 106.217417 102.022909 
L 107.087483 100.324242 
L 107.667527 99.239679 
L 110.85777 94.272642 
L 113.612979 90.972727 
L 114.773067 89.736228 
L 116.948233 87.630567 
L 121.298563 84.150533 
L 123.328718 82.796326 
L 125.213861 81.64594 
L 129.709203 79.241542 
L 134.639577 77.026132 
L 135.654655 76.6345 
L 137.82982 75.808315 
L 139.27993 75.283438 
L 140.73004 74.758554 
L 142.470173 74.202462 
L 145.805426 73.091536 
L 157.841341 70.038895 
L 162.771716 69.005161 
L 165.091892 68.550425 
L 167.847102 68.051018 
L 169.442223 67.760772 
L 172.342443 67.337237 
L 182.493215 65.853063 
L 194.239108 64.428699 
L 220.341092 62.212065 
L 234.117139 61.375064 
L 247.313142 60.630109 
L 297.921989 58.562511 
L 304.882519 58.337439 
L 320.833731 57.863414 
L 335.624855 57.479816 
L 342.875407 57.303451 
L 349.980947 57.139625 
L 362.161873 56.883928 
L 371.7326 56.686135 
L 385.218625 56.4179 
L 385.218625 56.4179 
" clip-path="url(#p9019da6d80)" style="fill: none; stroke: #808080; stroke-opacity: 0.5; stroke-width: 3; stroke-linecap: square"/>
   </g>
   <g id="patch_6">
    <path d="M 81 169.2 
L 81 43.2 
" style="fill: none; stroke: #000000; stroke-width: 0.8; stroke-linejoin: miter; stroke-linecap: square"/>
   </g>
   <g id="patch_7">
    <path d="M 81 169.2 
L 385.363636 169.2 
" style="fill: none; stroke: #000000; stroke-width: 0.8; stroke-linejoin: miter; stroke-linecap: square"/>
   </g>
   <g id="text_5">
    <!-- Cumulative performance across training -->
    <g transform="translate(112.315568 37.2) scale(0.12 -0.12)">
     <defs>
      <path id="DejaVuSans-43" d="M 4122 4306 
L 4122 3641 
Q 3803 3938 3442 4084 
Q 3081 4231 2675 4231 
Q 1875 4231 1450 3742 
Q 1025 3253 1025 2328 
Q 1025 1406 1450 917 
Q 1875 428 2675 428 
Q 3081 428 3442 575 
Q 3803 722 4122 1019 
L 4122 359 
Q 3791 134 3420 21 
Q 3050 -91 2638 -91 
Q 1578 -91 968 557 
Q 359 1206 359 2328 
Q 359 3453 968 4101 
Q 1578 4750 2638 4750 
Q 3056 4750 3426 4639 
Q 3797 4528 4122 4306 
z
" transform="scale(0.015625)"/>
      <path id="DejaVuSans-75" d="M 544 1381 
L 544 3500 
L 1119 3500 
L 1119 1403 
Q 1119 906 1312 657 
Q 1506 409 1894 409 
Q 2359 409 2629 706 
Q 2900 1003 2900 1516 
L 2900 3500 
L 3475 3500 
L 3475 0 
L 2900 0 
L 2900 538 
Q 2691 219 2414 64 
Q 2138 -91 1772 -91 
Q 1169 -91 856 284 
Q 544 659 544 1381 
z
M 1991 3584 
L 1991 3584 
z
" transform="scale(0.015625)"/>
      <path id="DejaVuSans-6d" d="M 3328 2828 
Q 3544 3216 3844 3400 
Q 4144 3584 4550 3584 
Q 5097 3584 5394 3201 
Q 5691 2819 5691 2113 
L 5691 0 
L 5113 0 
L 5113 2094 
Q 5113 2597 4934 2840 
Q 4756 3084 4391 3084 
Q 3944 3084 3684 2787 
Q 3425 2491 3425 1978 
L 3425 0 
L 2847 0 
L 2847 2094 
Q 2847 2600 2669 2842 
Q 2491 3084 2119 3084 
Q 1678 3084 1418 2786 
Q 1159 2488 1159 1978 
L 1159 0 
L 581 0 
L 581 3500 
L 1159 3500 
L 1159 2956 
Q 1356 3278 1631 3431 
Q 1906 3584 2284 3584 
Q 2666 3584 2933 3390 
Q 3200 3197 3328 2828 
z
" transform="scale(0.015625)"/>
      <path id="DejaVuSans-6c" d="M 603 4863 
L 1178 4863 
L 1178 0 
L 603 0 
L 603 4863 
z
" transform="scale(0.015625)"/>
      <path id="DejaVuSans-76" d="M 191 3500 
L 800 3500 
L 1894 563 
L 2988 3500 
L 3597 3500 
L 2284 0 
L 1503 0 
L 191 3500 
z
" transform="scale(0.015625)"/>
      <path id="DejaVuSans-70" d="M 1159 525 
L 1159 -1331 
L 581 -1331 
L 581 3500 
L 1159 3500 
L 1159 2969 
Q 1341 3281 1617 3432 
Q 1894 3584 2278 3584 
Q 2916 3584 3314 3078 
Q 3713 2572 3713 1747 
Q 3713 922 3314 415 
Q 2916 -91 2278 -91 
Q 1894 -91 1617 61 
Q 1341 213 1159 525 
z
M 3116 1747 
Q 3116 2381 2855 2742 
Q 2594 3103 2138 3103 
Q 1681 3103 1420 2742 
Q 1159 2381 1159 1747 
Q 1159 1113 1420 752 
Q 1681 391 2138 391 
Q 2594 391 2855 752 
Q 3116 1113 3116 1747 
z
" transform="scale(0.015625)"/>
      <path id="DejaVuSans-66" d="M 2375 4863 
L 2375 4384 
L 1825 4384 
Q 1516 4384 1395 4259 
Q 1275 4134 1275 3809 
L 1275 3500 
L 2222 3500 
L 2222 3053 
L 1275 3053 
L 1275 0 
L 697 0 
L 697 3053 
L 147 3053 
L 147 3500 
L 697 3500 
L 697 3744 
Q 697 4328 969 4595 
Q 1241 4863 1831 4863 
L 2375 4863 
z
" transform="scale(0.015625)"/>
      <path id="DejaVuSans-6f" d="M 1959 3097 
Q 1497 3097 1228 2736 
Q 959 2375 959 1747 
Q 959 1119 1226 758 
Q 1494 397 1959 397 
Q 2419 397 2687 759 
Q 2956 1122 2956 1747 
Q 2956 2369 2687 2733 
Q 2419 3097 1959 3097 
z
M 1959 3584 
Q 2709 3584 3137 3096 
Q 3566 2609 3566 1747 
Q 3566 888 3137 398 
Q 2709 -91 1959 -91 
Q 1206 -91 779 398 
Q 353 888 353 1747 
Q 353 2609 779 3096 
Q 1206 3584 1959 3584 
z
" transform="scale(0.015625)"/>
      <path id="DejaVuSans-63" d="M 3122 3366 
L 3122 2828 
Q 2878 2963 2633 3030 
Q 2388 3097 2138 3097 
Q 1578 3097 1268 2742 
Q 959 2388 959 1747 
Q 959 1106 1268 751 
Q 1578 397 2138 397 
Q 2388 397 2633 464 
Q 2878 531 3122 666 
L 3122 134 
Q 2881 22 2623 -34 
Q 2366 -91 2075 -91 
Q 1284 -91 818 406 
Q 353 903 353 1747 
Q 353 2603 823 3093 
Q 1294 3584 2113 3584 
Q 2378 3584 2631 3529 
Q 2884 3475 3122 3366 
z
" transform="scale(0.015625)"/>
      <path id="DejaVuSans-73" d="M 2834 3397 
L 2834 2853 
Q 2591 2978 2328 3040 
Q 2066 3103 1784 3103 
Q 1356 3103 1142 2972 
Q 928 2841 928 2578 
Q 928 2378 1081 2264 
Q 1234 2150 1697 2047 
L 1894 2003 
Q 2506 1872 2764 1633 
Q 3022 1394 3022 966 
Q 3022 478 2636 193 
Q 2250 -91 1575 -91 
Q 1294 -91 989 -36 
Q 684 19 347 128 
L 347 722 
Q 666 556 975 473 
Q 1284 391 1588 391 
Q 1994 391 2212 530 
Q 2431 669 2431 922 
Q 2431 1156 2273 1281 
Q 2116 1406 1581 1522 
L 1381 1569 
Q 847 1681 609 1914 
Q 372 2147 372 2553 
Q 372 3047 722 3315 
Q 1072 3584 1716 3584 
Q 2034 3584 2315 3537 
Q 2597 3491 2834 3397 
z
" transform="scale(0.015625)"/>
      <path id="DejaVuSans-67" d="M 2906 1791 
Q 2906 2416 2648 2759 
Q 2391 3103 1925 3103 
Q 1463 3103 1205 2759 
Q 947 2416 947 1791 
Q 947 1169 1205 825 
Q 1463 481 1925 481 
Q 2391 481 2648 825 
Q 2906 1169 2906 1791 
z
M 3481 434 
Q 3481 -459 3084 -895 
Q 2688 -1331 1869 -1331 
Q 1566 -1331 1297 -1286 
Q 1028 -1241 775 -1147 
L 775 -588 
Q 1028 -725 1275 -790 
Q 1522 -856 1778 -856 
Q 2344 -856 2625 -561 
Q 2906 -266 2906 331 
L 2906 616 
Q 2728 306 2450 153 
Q 2172 0 1784 0 
Q 1141 0 747 490 
Q 353 981 353 1791 
Q 353 2603 747 3093 
Q 1141 3584 1784 3584 
Q 2172 3584 2450 3431 
Q 2728 3278 2906 2969 
L 2906 3500 
L 3481 3500 
L 3481 434 
z
" transform="scale(0.015625)"/>
     </defs>
     <use xlink:href="#DejaVuSans-43"/>
     <use xlink:href="#DejaVuSans-75" x="69.824219"/>
     <use xlink:href="#DejaVuSans-6d" x="133.203125"/>
     <use xlink:href="#DejaVuSans-75" x="230.615234"/>
     <use xlink:href="#DejaVuSans-6c" x="293.994141"/>
     <use xlink:href="#DejaVuSans-61" x="321.777344"/>
     <use xlink:href="#DejaVuSans-74" x="383.056641"/>
     <use xlink:href="#DejaVuSans-69" x="422.265625"/>
     <use xlink:href="#DejaVuSans-76" x="450.048828"/>
     <use xlink:href="#DejaVuSans-65" x="509.228516"/>
     <use xlink:href="#DejaVuSans-20" x="570.751953"/>
     <use xlink:href="#DejaVuSans-70" x="602.539062"/>
     <use xlink:href="#DejaVuSans-65" x="666.015625"/>
     <use xlink:href="#DejaVuSans-72" x="727.539062"/>
     <use xlink:href="#DejaVuSans-66" x="768.652344"/>
     <use xlink:href="#DejaVuSans-6f" x="803.857422"/>
     <use xlink:href="#DejaVuSans-72" x="865.039062"/>
     <use xlink:href="#DejaVuSans-6d" x="904.402344"/>
     <use xlink:href="#DejaVuSans-61" x="1001.814453"/>
     <use xlink:href="#DejaVuSans-6e" x="1063.09375"/>
     <use xlink:href="#DejaVuSans-63" x="1126.472656"/>
     <use xlink:href="#DejaVuSans-65" x="1181.453125"/>
     <use xlink:href="#DejaVuSans-20" x="1242.976562"/>
     <use xlink:href="#DejaVuSans-61" x="1274.763672"/>
     <use xlink:href="#DejaVuSans-63" x="1336.042969"/>
     <use xlink:href="#DejaVuSans-72" x="1391.023438"/>
     <use xlink:href="#DejaVuSans-6f" x="1429.886719"/>
     <use xlink:href="#DejaVuSans-73" x="1491.068359"/>
     <use xlink:href="#DejaVuSans-73" x="1543.167969"/>
     <use xlink:href="#DejaVuSans-20" x="1595.267578"/>
     <use xlink:href="#DejaVuSans-74" x="1627.054688"/>
     <use xlink:href="#DejaVuSans-72" x="1666.263672"/>
     <use xlink:href="#DejaVuSans-61" x="1707.376953"/>
     <use xlink:href="#DejaVuSans-69" x="1768.65625"/>
     <use xlink:href="#DejaVuSans-6e" x="1796.439453"/>
     <use xlink:href="#DejaVuSans-69" x="1859.818359"/>
     <use xlink:href="#DejaVuSans-6e" x="1887.601562"/>
     <use xlink:href="#DejaVuSans-67" x="1950.980469"/>
    </g>
   </g>
   <g id="legend_1">
    <g id="patch_8">
     <path d="M 235.663636 164.2 
L 378.363636 164.2 
Q 380.363636 164.2 380.363636 162.2 
L 380.363636 104.4875 
Q 380.363636 102.4875 378.363636 102.4875 
L 235.663636 102.4875 
Q 233.663636 102.4875 233.663636 104.4875 
L 233.663636 162.2 
Q 233.663636 164.2 235.663636 164.2 
z
" style="fill: #ffffff; opacity: 0.8; stroke: #cccccc; stroke-linejoin: miter"/>
    </g>
    <g id="text_6">
     <!-- Agent -->
     <g transform="translate(292.213636 114.085938) scale(0.1 -0.1)">
      <defs>
       <path id="DejaVuSans-41" d="M 2188 4044 
L 1331 1722 
L 3047 1722 
L 2188 4044 
z
M 1831 4666 
L 2547 4666 
L 4325 0 
L 3669 0 
L 3244 1197 
L 1141 1197 
L 716 0 
L 50 0 
L 1831 4666 
z
" transform="scale(0.015625)"/>
      </defs>
      <use xlink:href="#DejaVuSans-41"/>
      <use xlink:href="#DejaVuSans-67" x="68.408203"/>
      <use xlink:href="#DejaVuSans-65" x="131.884766"/>
      <use xlink:href="#DejaVuSans-6e" x="193.408203"/>
      <use xlink:href="#DejaVuSans-74" x="256.787109"/>
     </g>
    </g>
    <g id="line2d_12">
     <path d="M 237.663636 125.264062 
L 247.663636 125.264062 
L 257.663636 125.264062 
" style="fill: none; stroke: #800080; stroke-opacity: 0.5; stroke-width: 3; stroke-linecap: square"/>
    </g>
    <g id="text_7">
     <!-- imagination-strategist -->
     <g transform="translate(265.663636 128.764062) scale(0.1 -0.1)">
      <defs>
       <path id="DejaVuSans-2d" d="M 313 2009 
L 1997 2009 
L 1997 1497 
L 313 1497 
L 313 2009 
z
" transform="scale(0.015625)"/>
      </defs>
      <use xlink:href="#DejaVuSans-69"/>
      <use xlink:href="#DejaVuSans-6d" x="27.783203"/>
      <use xlink:href="#DejaVuSans-61" x="125.195312"/>
      <use xlink:href="#DejaVuSans-67" x="186.474609"/>
      <use xlink:href="#DejaVuSans-69" x="249.951172"/>
      <use xlink:href="#DejaVuSans-6e" x="277.734375"/>
      <use xlink:href="#DejaVuSans-61" x="341.113281"/>
      <use xlink:href="#DejaVuSans-74" x="402.392578"/>
      <use xlink:href="#DejaVuSans-69" x="441.601562"/>
      <use xlink:href="#DejaVuSans-6f" x="469.384766"/>
      <use xlink:href="#DejaVuSans-6e" x="530.566406"/>
      <use xlink:href="#DejaVuSans-2d" x="593.945312"/>
      <use xlink:href="#DejaVuSans-73" x="630.029297"/>
      <use xlink:href="#DejaVuSans-74" x="682.128906"/>
      <use xlink:href="#DejaVuSans-72" x="721.337891"/>
      <use xlink:href="#DejaVuSans-61" x="762.451172"/>
      <use xlink:href="#DejaVuSans-74" x="823.730469"/>
      <use xlink:href="#DejaVuSans-65" x="862.939453"/>
      <use xlink:href="#DejaVuSans-67" x="924.462891"/>
      <use xlink:href="#DejaVuSans-69" x="987.939453"/>
      <use xlink:href="#DejaVuSans-73" x="1015.722656"/>
      <use xlink:href="#DejaVuSans-74" x="1067.822266"/>
     </g>
    </g>
    <g id="line2d_13">
     <path d="M 237.663636 139.942187 
L 247.663636 139.942187 
L 257.663636 139.942187 
" style="fill: none; stroke-dasharray: 11.1,4.8; stroke-dashoffset: 0; stroke: #ffa500; stroke-opacity: 0.7; stroke-width: 3"/>
    </g>
    <g id="text_8">
     <!-- replay-strategist -->
     <g transform="translate(265.663636 143.442187) scale(0.1 -0.1)">
      <defs>
       <path id="DejaVuSans-79" d="M 2059 -325 
Q 1816 -950 1584 -1140 
Q 1353 -1331 966 -1331 
L 506 -1331 
L 506 -850 
L 844 -850 
Q 1081 -850 1212 -737 
Q 1344 -625 1503 -206 
L 1606 56 
L 191 3500 
L 800 3500 
L 1894 763 
L 2988 3500 
L 3597 3500 
L 2059 -325 
z
" transform="scale(0.015625)"/>
      </defs>
      <use xlink:href="#DejaVuSans-72"/>
      <use xlink:href="#DejaVuSans-65" x="38.863281"/>
      <use xlink:href="#DejaVuSans-70" x="100.386719"/>
      <use xlink:href="#DejaVuSans-6c" x="163.863281"/>
      <use xlink:href="#DejaVuSans-61" x="191.646484"/>
      <use xlink:href="#DejaVuSans-79" x="252.925781"/>
      <use xlink:href="#DejaVuSans-2d" x="310.355469"/>
      <use xlink:href="#DejaVuSans-73" x="346.439453"/>
      <use xlink:href="#DejaVuSans-74" x="398.539062"/>
      <use xlink:href="#DejaVuSans-72" x="437.748047"/>
      <use xlink:href="#DejaVuSans-61" x="478.861328"/>
      <use xlink:href="#DejaVuSans-74" x="540.140625"/>
      <use xlink:href="#DejaVuSans-65" x="579.349609"/>
      <use xlink:href="#DejaVuSans-67" x="640.873047"/>
      <use xlink:href="#DejaVuSans-69" x="704.349609"/>
      <use xlink:href="#DejaVuSans-73" x="732.132812"/>
      <use xlink:href="#DejaVuSans-74" x="784.232422"/>
     </g>
    </g>
    <g id="line2d_14">
     <path d="M 237.663636 154.620313 
L 247.663636 154.620313 
L 257.663636 154.620313 
" style="fill: none; stroke: #808080; stroke-opacity: 0.5; stroke-width: 3; stroke-linecap: square"/>
    </g>
    <g id="text_9">
     <!-- stumbler alone -->
     <g transform="translate(265.663636 158.120313) scale(0.1 -0.1)">
      <defs>
       <path id="DejaVuSans-62" d="M 3116 1747 
Q 3116 2381 2855 2742 
Q 2594 3103 2138 3103 
Q 1681 3103 1420 2742 
Q 1159 2381 1159 1747 
Q 1159 1113 1420 752 
Q 1681 391 2138 391 
Q 2594 391 2855 752 
Q 3116 1113 3116 1747 
z
M 1159 2969 
Q 1341 3281 1617 3432 
Q 1894 3584 2278 3584 
Q 2916 3584 3314 3078 
Q 3713 2572 3713 1747 
Q 3713 922 3314 415 
Q 2916 -91 2278 -91 
Q 1894 -91 1617 61 
Q 1341 213 1159 525 
L 1159 0 
L 581 0 
L 581 4863 
L 1159 4863 
L 1159 2969 
z
" transform="scale(0.015625)"/>
      </defs>
      <use xlink:href="#DejaVuSans-73"/>
      <use xlink:href="#DejaVuSans-74" x="52.099609"/>
      <use xlink:href="#DejaVuSans-75" x="91.308594"/>
      <use xlink:href="#DejaVuSans-6d" x="154.6875"/>
      <use xlink:href="#DejaVuSans-62" x="252.099609"/>
      <use xlink:href="#DejaVuSans-6c" x="315.576172"/>
      <use xlink:href="#DejaVuSans-65" x="343.359375"/>
      <use xlink:href="#DejaVuSans-72" x="404.882812"/>
      <use xlink:href="#DejaVuSans-20" x="445.996094"/>
      <use xlink:href="#DejaVuSans-61" x="477.783203"/>
      <use xlink:href="#DejaVuSans-6c" x="539.0625"/>
      <use xlink:href="#DejaVuSans-6f" x="566.845703"/>
      <use xlink:href="#DejaVuSans-6e" x="628.027344"/>
      <use xlink:href="#DejaVuSans-65" x="691.40625"/>
     </g>
    </g>
   </g>
  </g>
  <g id="axes_2">
   <g id="patch_9">
    <path d="M 431.018182 169.2 
L 583.2 169.2 
L 583.2 43.2 
L 431.018182 43.2 
z
" style="fill: #ffffff"/>
   </g>
   <g id="patch_10">
    <path d="M 437.935537 2767.95 
L 477.463282 2767.95 
L 477.463282 55.876426 
L 437.935537 55.876426 
z
" clip-path="url(#p56d46fedea)" style="fill: #dda0dd"/>
   </g>
   <g id="patch_11">
    <path d="M 487.345218 2767.95 
L 526.872963 2767.95 
L 526.872963 74.596786 
L 487.345218 74.596786 
z
" clip-path="url(#p56d46fedea)" style="fill: #f4a460"/>
   </g>
   <g id="patch_12">
    <path d="M 536.7549 2767.95 
L 576.282645 2767.95 
L 576.282645 151.045348 
L 536.7549 151.045348 
z
" clip-path="url(#p56d46fedea)" style="fill: #a9a9a9"/>
   </g>
   <g id="matplotlib.axis_3">
    <g id="xtick_6">
     <g id="line2d_15">
      <g>
       <use xlink:href="#m4443644e91" x="457.69941" y="169.2" style="stroke: #000000; stroke-width: 0.8"/>
      </g>
     </g>
    </g>
    <g id="xtick_7">
     <g id="line2d_16">
      <g>
       <use xlink:href="#m4443644e91" x="507.109091" y="169.2" style="stroke: #000000; stroke-width: 0.8"/>
      </g>
     </g>
    </g>
    <g id="xtick_8">
     <g id="line2d_17">
      <g>
       <use xlink:href="#m4443644e91" x="556.518772" y="169.2" style="stroke: #000000; stroke-width: 0.8"/>
      </g>
     </g>
    </g>
   </g>
   <g id="matplotlib.axis_4">
    <g id="ytick_4">
     <g id="line2d_18">
      <defs>
       <path id="me017e53eda" d="M 0 0 
L 3.5 0 
" style="stroke: #000000; stroke-width: 0.8"/>
      </defs>
      <g>
       <use xlink:href="#me017e53eda" x="583.2" y="153.45" style="stroke: #000000; stroke-width: 0.8"/>
      </g>
     </g>
     <g id="text_10">
      <!-- 0.83 -->
      <g transform="translate(590.2 157.249219) scale(0.1 -0.1)">
       <defs>
        <path id="DejaVuSans-33" d="M 2597 2516 
Q 3050 2419 3304 2112 
Q 3559 1806 3559 1356 
Q 3559 666 3084 287 
Q 2609 -91 1734 -91 
Q 1441 -91 1130 -33 
Q 819 25 488 141 
L 488 750 
Q 750 597 1062 519 
Q 1375 441 1716 441 
Q 2309 441 2620 675 
Q 2931 909 2931 1356 
Q 2931 1769 2642 2001 
Q 2353 2234 1838 2234 
L 1294 2234 
L 1294 2753 
L 1863 2753 
Q 2328 2753 2575 2939 
Q 2822 3125 2822 3475 
Q 2822 3834 2567 4026 
Q 2313 4219 1838 4219 
Q 1578 4219 1281 4162 
Q 984 4106 628 3988 
L 628 4550 
Q 988 4650 1302 4700 
Q 1616 4750 1894 4750 
Q 2613 4750 3031 4423 
Q 3450 4097 3450 3541 
Q 3450 3153 3228 2886 
Q 3006 2619 2597 2516 
z
" transform="scale(0.015625)"/>
       </defs>
       <use xlink:href="#DejaVuSans-30"/>
       <use xlink:href="#DejaVuSans-2e" x="63.623047"/>
       <use xlink:href="#DejaVuSans-38" x="95.410156"/>
       <use xlink:href="#DejaVuSans-33" x="159.033203"/>
      </g>
     </g>
    </g>
    <g id="ytick_5">
     <g id="line2d_19">
      <g>
       <use xlink:href="#me017e53eda" x="583.2" y="121.95" style="stroke: #000000; stroke-width: 0.8"/>
      </g>
     </g>
     <g id="text_11">
      <!-- 0.84 -->
      <g transform="translate(590.2 125.749219) scale(0.1 -0.1)">
       <use xlink:href="#DejaVuSans-30"/>
       <use xlink:href="#DejaVuSans-2e" x="63.623047"/>
       <use xlink:href="#DejaVuSans-38" x="95.410156"/>
       <use xlink:href="#DejaVuSans-34" x="159.033203"/>
      </g>
     </g>
    </g>
    <g id="ytick_6">
     <g id="line2d_20">
      <g>
       <use xlink:href="#me017e53eda" x="583.2" y="90.45" style="stroke: #000000; stroke-width: 0.8"/>
      </g>
     </g>
     <g id="text_12">
      <!-- 0.85 -->
      <g transform="translate(590.2 94.249219) scale(0.1 -0.1)">
       <defs>
        <path id="DejaVuSans-35" d="M 691 4666 
L 3169 4666 
L 3169 4134 
L 1269 4134 
L 1269 2991 
Q 1406 3038 1543 3061 
Q 1681 3084 1819 3084 
Q 2600 3084 3056 2656 
Q 3513 2228 3513 1497 
Q 3513 744 3044 326 
Q 2575 -91 1722 -91 
Q 1428 -91 1123 -41 
Q 819 9 494 109 
L 494 744 
Q 775 591 1075 516 
Q 1375 441 1709 441 
Q 2250 441 2565 725 
Q 2881 1009 2881 1497 
Q 2881 1984 2565 2268 
Q 2250 2553 1709 2553 
Q 1456 2553 1204 2497 
Q 953 2441 691 2322 
L 691 4666 
z
" transform="scale(0.015625)"/>
       </defs>
       <use xlink:href="#DejaVuSans-30"/>
       <use xlink:href="#DejaVuSans-2e" x="63.623047"/>
       <use xlink:href="#DejaVuSans-38" x="95.410156"/>
       <use xlink:href="#DejaVuSans-35" x="159.033203"/>
      </g>
     </g>
    </g>
    <g id="ytick_7">
     <g id="line2d_21">
      <g>
       <use xlink:href="#me017e53eda" x="583.2" y="58.95" style="stroke: #000000; stroke-width: 0.8"/>
      </g>
     </g>
     <g id="text_13">
      <!-- 0.86 -->
      <g transform="translate(590.2 62.749219) scale(0.1 -0.1)">
       <use xlink:href="#DejaVuSans-30"/>
       <use xlink:href="#DejaVuSans-2e" x="63.623047"/>
       <use xlink:href="#DejaVuSans-38" x="95.410156"/>
       <use xlink:href="#DejaVuSans-36" x="159.033203"/>
      </g>
     </g>
    </g>
   </g>
   <g id="LineCollection_1">
    <path d="M 457.69941 58.032481 
L 457.69941 53.72037 
" clip-path="url(#p56d46fedea)" style="fill: none; stroke: #000000; stroke-width: 1.5"/>
    <path d="M 507.109091 78.890174 
L 507.109091 70.303398 
" clip-path="url(#p56d46fedea)" style="fill: none; stroke: #000000; stroke-width: 1.5"/>
    <path d="M 556.518772 152.13988 
L 556.518772 149.950815 
" clip-path="url(#p56d46fedea)" style="fill: none; stroke: #000000; stroke-width: 1.5"/>
   </g>
   <g id="line2d_22">
    <defs>
     <path id="m603f7712f4" d="M 5 0 
L -5 -0 
" style="stroke: #000000"/>
    </defs>
    <g clip-path="url(#p56d46fedea)">
     <use xlink:href="#m603f7712f4" x="457.69941" y="58.032481" style="stroke: #000000"/>
     <use xlink:href="#m603f7712f4" x="507.109091" y="78.890174" style="stroke: #000000"/>
     <use xlink:href="#m603f7712f4" x="556.518772" y="152.13988" style="stroke: #000000"/>
    </g>
   </g>
   <g id="line2d_23">
    <g clip-path="url(#p56d46fedea)">
     <use xlink:href="#m603f7712f4" x="457.69941" y="53.72037" style="stroke: #000000"/>
     <use xlink:href="#m603f7712f4" x="507.109091" y="70.303398" style="stroke: #000000"/>
     <use xlink:href="#m603f7712f4" x="556.518772" y="149.950815" style="stroke: #000000"/>
    </g>
   </g>
   <g id="patch_13">
    <path d="M 583.2 169.2 
L 583.2 43.2 
" style="fill: none; stroke: #000000; stroke-width: 0.8; stroke-linejoin: miter; stroke-linecap: square"/>
   </g>
   <g id="patch_14">
    <path d="M 431.018182 169.2 
L 583.2 169.2 
" style="fill: none; stroke: #000000; stroke-width: 0.8; stroke-linejoin: miter; stroke-linecap: square"/>
   </g>
   <g id="patch_15">
    <path d="M 431.018182 43.2 
L 583.2 43.2 
" style="fill: none; stroke: #000000; stroke-width: 0.8; stroke-linejoin: miter; stroke-linecap: square"/>
   </g>
   <g id="text_14">
    <!-- Overall performance -->
    <g transform="translate(445.331591 37.2) scale(0.12 -0.12)">
     <defs>
      <path id="DejaVuSans-4f" d="M 2522 4238 
Q 1834 4238 1429 3725 
Q 1025 3213 1025 2328 
Q 1025 1447 1429 934 
Q 1834 422 2522 422 
Q 3209 422 3611 934 
Q 4013 1447 4013 2328 
Q 4013 3213 3611 3725 
Q 3209 4238 2522 4238 
z
M 2522 4750 
Q 3503 4750 4090 4092 
Q 4678 3434 4678 2328 
Q 4678 1225 4090 567 
Q 3503 -91 2522 -91 
Q 1538 -91 948 565 
Q 359 1222 359 2328 
Q 359 3434 948 4092 
Q 1538 4750 2522 4750 
z
" transform="scale(0.015625)"/>
     </defs>
     <use xlink:href="#DejaVuSans-4f"/>
     <use xlink:href="#DejaVuSans-76" x="78.710938"/>
     <use xlink:href="#DejaVuSans-65" x="137.890625"/>
     <use xlink:href="#DejaVuSans-72" x="199.414062"/>
     <use xlink:href="#DejaVuSans-61" x="240.527344"/>
     <use xlink:href="#DejaVuSans-6c" x="301.806641"/>
     <use xlink:href="#DejaVuSans-6c" x="329.589844"/>
     <use xlink:href="#DejaVuSans-20" x="357.373047"/>
     <use xlink:href="#DejaVuSans-70" x="389.160156"/>
     <use xlink:href="#DejaVuSans-65" x="452.636719"/>
     <use xlink:href="#DejaVuSans-72" x="514.160156"/>
     <use xlink:href="#DejaVuSans-66" x="555.273438"/>
     <use xlink:href="#DejaVuSans-6f" x="590.478516"/>
     <use xlink:href="#DejaVuSans-72" x="651.660156"/>
     <use xlink:href="#DejaVuSans-6d" x="691.023438"/>
     <use xlink:href="#DejaVuSans-61" x="788.435547"/>
     <use xlink:href="#DejaVuSans-6e" x="849.714844"/>
     <use xlink:href="#DejaVuSans-63" x="913.09375"/>
     <use xlink:href="#DejaVuSans-65" x="968.074219"/>
    </g>
   </g>
  </g>
  <g id="axes_3">
   <g id="patch_16">
    <path d="M 81 320.4 
L 385.363636 320.4 
L 385.363636 194.4 
L 81 194.4 
z
" style="fill: #ffffff"/>
   </g>
   <g id="patch_17">
    <path d="M 385.363636 202.036364 
Q 385.363636 217.309091 385.363636 232.581818 
" style="fill: none; stroke: #000000; stroke-width: 0.75; stroke-linecap: round"/>
   </g>
   <g id="patch_18">
    <path d="M 385.363636 202.036364 
Q 407.943861 198.218182 430.524085 194.4 
" style="fill: none; stroke-dasharray: 2.775,1.2; stroke-dashoffset: 0; stroke: #000000; stroke-width: 0.75; stroke-linecap: round"/>
   </g>
   <g id="patch_19">
    <path d="M 385.363636 232.581818 
Q 407.943861 276.490909 430.524085 320.4 
" style="fill: none; stroke-dasharray: 2.775,1.2; stroke-dashoffset: 0; stroke: #000000; stroke-width: 0.75; stroke-linecap: round"/>
   </g>
   <g id="matplotlib.axis_5">
    <g id="xtick_9">
     <g id="line2d_24">
      <g>
       <use xlink:href="#m4443644e91" x="95.34159" y="320.4" style="stroke: #000000; stroke-width: 0.8"/>
      </g>
     </g>
     <g id="text_15">
      <!-- 0 -->
      <g transform="translate(92.16034 334.998438) scale(0.1 -0.1)">
       <use xlink:href="#DejaVuSans-30"/>
      </g>
     </g>
    </g>
    <g id="xtick_10">
     <g id="line2d_25">
      <g>
       <use xlink:href="#m4443644e91" x="167.847102" y="320.4" style="stroke: #000000; stroke-width: 0.8"/>
      </g>
     </g>
     <g id="text_16">
      <!-- 5000 -->
      <g transform="translate(155.122102 334.998438) scale(0.1 -0.1)">
       <use xlink:href="#DejaVuSans-35"/>
       <use xlink:href="#DejaVuSans-30" x="63.623047"/>
       <use xlink:href="#DejaVuSans-30" x="127.246094"/>
       <use xlink:href="#DejaVuSans-30" x="190.869141"/>
      </g>
     </g>
    </g>
    <g id="xtick_11">
     <g id="line2d_26">
      <g>
       <use xlink:href="#m4443644e91" x="240.352613" y="320.4" style="stroke: #000000; stroke-width: 0.8"/>
      </g>
     </g>
     <g id="text_17">
      <!-- 10000 -->
      <g transform="translate(224.446363 334.998438) scale(0.1 -0.1)">
       <defs>
        <path id="DejaVuSans-31" d="M 794 531 
L 1825 531 
L 1825 4091 
L 703 3866 
L 703 4441 
L 1819 4666 
L 2450 4666 
L 2450 531 
L 3481 531 
L 3481 0 
L 794 0 
L 794 531 
z
" transform="scale(0.015625)"/>
       </defs>
       <use xlink:href="#DejaVuSans-31"/>
       <use xlink:href="#DejaVuSans-30" x="63.623047"/>
       <use xlink:href="#DejaVuSans-30" x="127.246094"/>
       <use xlink:href="#DejaVuSans-30" x="190.869141"/>
       <use xlink:href="#DejaVuSans-30" x="254.492188"/>
      </g>
     </g>
    </g>
    <g id="xtick_12">
     <g id="line2d_27">
      <g>
       <use xlink:href="#m4443644e91" x="312.858125" y="320.4" style="stroke: #000000; stroke-width: 0.8"/>
      </g>
     </g>
     <g id="text_18">
      <!-- 15000 -->
      <g transform="translate(296.951875 334.998438) scale(0.1 -0.1)">
       <use xlink:href="#DejaVuSans-31"/>
       <use xlink:href="#DejaVuSans-35" x="63.623047"/>
       <use xlink:href="#DejaVuSans-30" x="127.246094"/>
       <use xlink:href="#DejaVuSans-30" x="190.869141"/>
       <use xlink:href="#DejaVuSans-30" x="254.492188"/>
      </g>
     </g>
    </g>
    <g id="xtick_13">
     <g id="line2d_28">
      <g>
       <use xlink:href="#m4443644e91" x="385.363636" y="320.4" style="stroke: #000000; stroke-width: 0.8"/>
      </g>
     </g>
     <g id="text_19">
      <!-- 20000 -->
      <g transform="translate(369.457386 334.998438) scale(0.1 -0.1)">
       <defs>
        <path id="DejaVuSans-32" d="M 1228 531 
L 3431 531 
L 3431 0 
L 469 0 
L 469 531 
Q 828 903 1448 1529 
Q 2069 2156 2228 2338 
Q 2531 2678 2651 2914 
Q 2772 3150 2772 3378 
Q 2772 3750 2511 3984 
Q 2250 4219 1831 4219 
Q 1534 4219 1204 4116 
Q 875 4013 500 3803 
L 500 4441 
Q 881 4594 1212 4672 
Q 1544 4750 1819 4750 
Q 2544 4750 2975 4387 
Q 3406 4025 3406 3419 
Q 3406 3131 3298 2873 
Q 3191 2616 2906 2266 
Q 2828 2175 2409 1742 
Q 1991 1309 1228 531 
z
" transform="scale(0.015625)"/>
       </defs>
       <use xlink:href="#DejaVuSans-32"/>
       <use xlink:href="#DejaVuSans-30" x="63.623047"/>
       <use xlink:href="#DejaVuSans-30" x="127.246094"/>
       <use xlink:href="#DejaVuSans-30" x="190.869141"/>
       <use xlink:href="#DejaVuSans-30" x="254.492188"/>
      </g>
     </g>
    </g>
    <g id="text_20">
     <!-- Games played -->
     <g transform="translate(197.265412 348.676562) scale(0.1 -0.1)">
      <defs>
       <path id="DejaVuSans-47" d="M 3809 666 
L 3809 1919 
L 2778 1919 
L 2778 2438 
L 4434 2438 
L 4434 434 
Q 4069 175 3628 42 
Q 3188 -91 2688 -91 
Q 1594 -91 976 548 
Q 359 1188 359 2328 
Q 359 3472 976 4111 
Q 1594 4750 2688 4750 
Q 3144 4750 3555 4637 
Q 3966 4525 4313 4306 
L 4313 3634 
Q 3963 3931 3569 4081 
Q 3175 4231 2741 4231 
Q 1884 4231 1454 3753 
Q 1025 3275 1025 2328 
Q 1025 1384 1454 906 
Q 1884 428 2741 428 
Q 3075 428 3337 486 
Q 3600 544 3809 666 
z
" transform="scale(0.015625)"/>
       <path id="DejaVuSans-64" d="M 2906 2969 
L 2906 4863 
L 3481 4863 
L 3481 0 
L 2906 0 
L 2906 525 
Q 2725 213 2448 61 
Q 2172 -91 1784 -91 
Q 1150 -91 751 415 
Q 353 922 353 1747 
Q 353 2572 751 3078 
Q 1150 3584 1784 3584 
Q 2172 3584 2448 3432 
Q 2725 3281 2906 2969 
z
M 947 1747 
Q 947 1113 1208 752 
Q 1469 391 1925 391 
Q 2381 391 2643 752 
Q 2906 1113 2906 1747 
Q 2906 2381 2643 2742 
Q 2381 3103 1925 3103 
Q 1469 3103 1208 2742 
Q 947 2381 947 1747 
z
" transform="scale(0.015625)"/>
      </defs>
      <use xlink:href="#DejaVuSans-47"/>
      <use xlink:href="#DejaVuSans-61" x="77.490234"/>
      <use xlink:href="#DejaVuSans-6d" x="138.769531"/>
      <use xlink:href="#DejaVuSans-65" x="236.181641"/>
      <use xlink:href="#DejaVuSans-73" x="297.705078"/>
      <use xlink:href="#DejaVuSans-20" x="349.804688"/>
      <use xlink:href="#DejaVuSans-70" x="381.591797"/>
      <use xlink:href="#DejaVuSans-6c" x="445.068359"/>
      <use xlink:href="#DejaVuSans-61" x="472.851562"/>
      <use xlink:href="#DejaVuSans-79" x="534.130859"/>
      <use xlink:href="#DejaVuSans-65" x="593.310547"/>
      <use xlink:href="#DejaVuSans-64" x="654.833984"/>
     </g>
    </g>
   </g>
   <g id="matplotlib.axis_6">
    <g id="ytick_8">
     <g id="line2d_29">
      <g>
       <use xlink:href="#m6af5628a52" x="81" y="305.127273" style="stroke: #000000; stroke-width: 0.8"/>
      </g>
     </g>
     <g id="text_21">
      <!-- 0.5 -->
      <g transform="translate(58.096875 308.926491) scale(0.1 -0.1)">
       <use xlink:href="#DejaVuSans-30"/>
       <use xlink:href="#DejaVuSans-2e" x="63.623047"/>
       <use xlink:href="#DejaVuSans-35" x="95.410156"/>
      </g>
     </g>
    </g>
    <g id="ytick_9">
     <g id="line2d_30">
      <g>
       <use xlink:href="#m6af5628a52" x="81" y="266.945455" style="stroke: #000000; stroke-width: 0.8"/>
      </g>
     </g>
     <g id="text_22">
      <!-- 1.0 -->
      <g transform="translate(58.096875 270.744673) scale(0.1 -0.1)">
       <use xlink:href="#DejaVuSans-31"/>
       <use xlink:href="#DejaVuSans-2e" x="63.623047"/>
       <use xlink:href="#DejaVuSans-30" x="95.410156"/>
      </g>
     </g>
    </g>
    <g id="ytick_10">
     <g id="line2d_31">
      <g>
       <use xlink:href="#m6af5628a52" x="81" y="228.763636" style="stroke: #000000; stroke-width: 0.8"/>
      </g>
     </g>
     <g id="text_23">
      <!-- 1.5 -->
      <g transform="translate(58.096875 232.562855) scale(0.1 -0.1)">
       <use xlink:href="#DejaVuSans-31"/>
       <use xlink:href="#DejaVuSans-2e" x="63.623047"/>
       <use xlink:href="#DejaVuSans-35" x="95.410156"/>
      </g>
     </g>
    </g>
    <g id="text_24">
     <!-- Optimal moves per game -->
     <g transform="translate(52.017187 321.011719) rotate(-90) scale(0.1 -0.1)">
      <use xlink:href="#DejaVuSans-4f"/>
      <use xlink:href="#DejaVuSans-70" x="78.710938"/>
      <use xlink:href="#DejaVuSans-74" x="142.1875"/>
      <use xlink:href="#DejaVuSans-69" x="181.396484"/>
      <use xlink:href="#DejaVuSans-6d" x="209.179688"/>
      <use xlink:href="#DejaVuSans-61" x="306.591797"/>
      <use xlink:href="#DejaVuSans-6c" x="367.871094"/>
      <use xlink:href="#DejaVuSans-20" x="395.654297"/>
      <use xlink:href="#DejaVuSans-6d" x="427.441406"/>
      <use xlink:href="#DejaVuSans-6f" x="524.853516"/>
      <use xlink:href="#DejaVuSans-76" x="586.035156"/>
      <use xlink:href="#DejaVuSans-65" x="645.214844"/>
      <use xlink:href="#DejaVuSans-73" x="706.738281"/>
      <use xlink:href="#DejaVuSans-20" x="758.837891"/>
      <use xlink:href="#DejaVuSans-70" x="790.625"/>
      <use xlink:href="#DejaVuSans-65" x="854.101562"/>
      <use xlink:href="#DejaVuSans-72" x="915.625"/>
      <use xlink:href="#DejaVuSans-20" x="956.738281"/>
      <use xlink:href="#DejaVuSans-67" x="988.525391"/>
      <use xlink:href="#DejaVuSans-61" x="1052.001953"/>
      <use xlink:href="#DejaVuSans-6d" x="1113.28125"/>
      <use xlink:href="#DejaVuSans-65" x="1210.693359"/>
     </g>
    </g>
   </g>
   <g id="line2d_32">
    <path d="M 95.486601 314.138182 
L 95.631612 313.699091 
L 96.211656 306.902727 
L 97.081722 300.150909 
L 99.256888 289.172929 
L 99.981943 286.569716 
L 101.432053 281.966364 
L 102.882163 278.325105 
L 104.477285 274.586061 
L 106.362428 271.101244 
L 108.392582 268.07903 
L 109.117637 267.154852 
L 110.85777 264.458641 
L 112.30788 262.333287 
L 116.658211 257.20026 
L 117.673288 256.002645 
L 119.268409 254.087669 
L 121.298563 251.96773 
L 128.984148 245.167171 
L 136.524721 239.775999 
L 143.775272 235.431508 
L 154.941121 230.01862 
L 161.031584 227.598627 
L 173.647543 223.416697 
L 185.97348 220.164724 
L 194.964163 218.202501 
L 199.894538 217.248455 
L 211.350409 215.296814 
L 222.081224 213.751935 
L 246.878109 210.869517 
L 285.596052 207.738492 
L 318.368544 205.895185 
L 334.029734 205.176018 
L 339.830175 204.917075 
L 366.947236 203.894185 
L 381.59335 203.420445 
L 385.218625 203.309371 
L 385.218625 203.309371 
" clip-path="url(#p8a94d602b4)" style="fill: none; stroke: #800080; stroke-opacity: 0.5; stroke-width: 3; stroke-linecap: square"/>
   </g>
   <g id="line2d_33">
    <path d="M 95.486601 314.138182 
L 95.631612 313.699091 
L 96.211656 306.902727 
L 97.081722 300.150909 
L 99.256888 289.172929 
L 99.981943 286.569716 
L 101.432053 281.966364 
L 102.737152 278.716684 
L 104.477285 274.585455 
L 105.782384 272.010379 
L 108.972626 267.168859 
L 109.987704 265.806049 
L 111.582825 263.056705 
L 114.338034 259.144705 
L 115.643133 257.612182 
L 117.673288 255.373884 
L 120.283486 252.534926 
L 122.748674 250.270909 
L 128.984148 244.987947 
L 131.884368 242.885152 
L 136.959754 239.293969 
L 138.264853 238.506192 
L 141.455096 236.554048 
L 148.850658 232.646696 
L 158.276374 228.579413 
L 167.122047 225.507614 
L 174.227587 223.425551 
L 185.248424 220.727164 
L 203.374802 217.294843 
L 221.791202 214.696176 
L 233.827117 213.281329 
L 238.322459 212.82234 
L 253.403605 211.413468 
L 292.556582 208.633676 
L 300.677199 208.182504 
L 315.758345 207.415303 
L 333.014657 206.648956 
L 339.395142 206.39626 
L 379.128162 205.014623 
L 385.218625 204.83714 
L 385.218625 204.83714 
" clip-path="url(#p8a94d602b4)" style="fill: none; stroke-dasharray: 11.1,4.8; stroke-dashoffset: 0; stroke: #ffa500; stroke-opacity: 0.7; stroke-width: 3"/>
   </g>
   <g id="line2d_34">
    <path d="M 95.486601 315.36 
L 95.776623 313.247273 
L 96.211656 308.067273 
L 97.226733 299.758322 
L 97.516756 298.101818 
L 97.951789 295.530909 
L 99.111877 290.013147 
L 100.416976 285.329455 
L 101.577064 281.76 
L 102.012097 280.621186 
L 103.027174 278.153619 
L 105.782384 272.657879 
L 106.797461 271.189919 
L 108.827615 268.348739 
L 111.872847 265.028325 
L 116.5132 260.857808 
L 120.718519 258.002182 
L 125.213861 255.404907 
L 128.404103 253.848421 
L 131.159313 252.662672 
L 132.029379 252.276392 
L 140.440018 249.204537 
L 148.850658 246.697295 
L 154.361077 245.353683 
L 161.321606 243.817007 
L 168.862179 242.395374 
L 188.293656 239.549136 
L 191.048865 239.234479 
L 206.130012 237.685888 
L 216.570805 236.822192 
L 227.446632 236.018433 
L 250.793407 234.524461 
L 270.659917 233.490476 
L 334.319756 230.972204 
L 347.805781 230.570661 
L 385.218625 229.555198 
L 385.218625 229.555198 
" clip-path="url(#p8a94d602b4)" style="fill: none; stroke: #808080; stroke-opacity: 0.5; stroke-width: 3; stroke-linecap: square"/>
   </g>
   <g id="patch_20">
    <path d="M 81 320.4 
L 81 194.4 
" style="fill: none; stroke: #000000; stroke-width: 0.8; stroke-linejoin: miter; stroke-linecap: square"/>
   </g>
   <g id="patch_21">
    <path d="M 81 320.4 
L 385.363636 320.4 
" style="fill: none; stroke: #000000; stroke-width: 0.8; stroke-linejoin: miter; stroke-linecap: square"/>
   </g>
  </g>
  <g id="axes_4">
   <g id="patch_22">
    <path d="M 431.018182 320.4 
L 583.2 320.4 
L 583.2 194.4 
L 431.018182 194.4 
z
" style="fill: #ffffff"/>
   </g>
   <g id="patch_23">
    <path d="M 437.935537 777.15 
L 477.463282 777.15 
L 477.463282 199.651156 
L 437.935537 199.651156 
z
" clip-path="url(#pace3437423)" style="fill: #dda0dd"/>
   </g>
   <g id="patch_24">
    <path d="M 487.345218 777.15 
L 526.872963 777.15 
L 526.872963 205.953204 
L 487.345218 205.953204 
z
" clip-path="url(#pace3437423)" style="fill: #f4a460"/>
   </g>
   <g id="patch_25">
    <path d="M 536.7549 777.15 
L 576.282645 777.15 
L 576.282645 307.91519 
L 536.7549 307.91519 
z
" clip-path="url(#pace3437423)" style="fill: #a9a9a9"/>
   </g>
   <g id="matplotlib.axis_7">
    <g id="xtick_14">
     <g id="text_25">
      <!-- imagination     -->
      <g transform="translate(421.646285 334.998438) scale(0.1 -0.1)">
       <use xlink:href="#DejaVuSans-69"/>
       <use xlink:href="#DejaVuSans-6d" x="27.783203"/>
       <use xlink:href="#DejaVuSans-61" x="125.195312"/>
       <use xlink:href="#DejaVuSans-67" x="186.474609"/>
       <use xlink:href="#DejaVuSans-69" x="249.951172"/>
       <use xlink:href="#DejaVuSans-6e" x="277.734375"/>
       <use xlink:href="#DejaVuSans-61" x="341.113281"/>
       <use xlink:href="#DejaVuSans-74" x="402.392578"/>
       <use xlink:href="#DejaVuSans-69" x="441.601562"/>
       <use xlink:href="#DejaVuSans-6f" x="469.384766"/>
       <use xlink:href="#DejaVuSans-6e" x="530.566406"/>
       <use xlink:href="#DejaVuSans-20" x="593.945312"/>
       <use xlink:href="#DejaVuSans-20" x="625.732422"/>
       <use xlink:href="#DejaVuSans-20" x="657.519531"/>
       <use xlink:href="#DejaVuSans-20" x="689.306641"/>
      </g>
     </g>
    </g>
    <g id="xtick_15">
     <g id="text_26">
      <!-- replay -->
      <g transform="translate(491.502841 334.998438) scale(0.1 -0.1)">
       <use xlink:href="#DejaVuSans-72"/>
       <use xlink:href="#DejaVuSans-65" x="38.863281"/>
       <use xlink:href="#DejaVuSans-70" x="100.386719"/>
       <use xlink:href="#DejaVuSans-6c" x="163.863281"/>
       <use xlink:href="#DejaVuSans-61" x="191.646484"/>
       <use xlink:href="#DejaVuSans-79" x="252.925781"/>
      </g>
     </g>
    </g>
    <g id="xtick_16">
     <g id="text_27">
      <!-- stumbler -->
      <g transform="translate(534.219553 334.998438) scale(0.1 -0.1)">
       <use xlink:href="#DejaVuSans-73"/>
       <use xlink:href="#DejaVuSans-74" x="52.099609"/>
       <use xlink:href="#DejaVuSans-75" x="91.308594"/>
       <use xlink:href="#DejaVuSans-6d" x="154.6875"/>
       <use xlink:href="#DejaVuSans-62" x="252.099609"/>
       <use xlink:href="#DejaVuSans-6c" x="315.576172"/>
       <use xlink:href="#DejaVuSans-65" x="343.359375"/>
       <use xlink:href="#DejaVuSans-72" x="404.882812"/>
      </g>
     </g>
    </g>
    <g id="text_28">
     <!-- Agent -->
     <g transform="translate(492.309091 348.676562) scale(0.1 -0.1)">
      <use xlink:href="#DejaVuSans-41"/>
      <use xlink:href="#DejaVuSans-67" x="68.408203"/>
      <use xlink:href="#DejaVuSans-65" x="131.884766"/>
      <use xlink:href="#DejaVuSans-6e" x="193.408203"/>
      <use xlink:href="#DejaVuSans-74" x="256.787109"/>
     </g>
    </g>
   </g>
   <g id="matplotlib.axis_8">
    <g id="ytick_11">
     <g id="line2d_35">
      <g>
       <use xlink:href="#me017e53eda" x="583.2" y="304.65" style="stroke: #000000; stroke-width: 0.8"/>
      </g>
     </g>
     <g id="text_29">
      <!-- 1.5 -->
      <g transform="translate(590.2 308.449219) scale(0.1 -0.1)">
       <use xlink:href="#DejaVuSans-31"/>
       <use xlink:href="#DejaVuSans-2e" x="63.623047"/>
       <use xlink:href="#DejaVuSans-35" x="95.410156"/>
      </g>
     </g>
    </g>
    <g id="ytick_12">
     <g id="line2d_36">
      <g>
       <use xlink:href="#me017e53eda" x="583.2" y="273.15" style="stroke: #000000; stroke-width: 0.8"/>
      </g>
     </g>
     <g id="text_30">
      <!-- 1.6 -->
      <g transform="translate(590.2 276.949219) scale(0.1 -0.1)">
       <use xlink:href="#DejaVuSans-31"/>
       <use xlink:href="#DejaVuSans-2e" x="63.623047"/>
       <use xlink:href="#DejaVuSans-36" x="95.410156"/>
      </g>
     </g>
    </g>
    <g id="ytick_13">
     <g id="line2d_37">
      <g>
       <use xlink:href="#me017e53eda" x="583.2" y="241.65" style="stroke: #000000; stroke-width: 0.8"/>
      </g>
     </g>
     <g id="text_31">
      <!-- 1.7 -->
      <g transform="translate(590.2 245.449219) scale(0.1 -0.1)">
       <defs>
        <path id="DejaVuSans-37" d="M 525 4666 
L 3525 4666 
L 3525 4397 
L 1831 0 
L 1172 0 
L 2766 4134 
L 525 4134 
L 525 4666 
z
" transform="scale(0.015625)"/>
       </defs>
       <use xlink:href="#DejaVuSans-31"/>
       <use xlink:href="#DejaVuSans-2e" x="63.623047"/>
       <use xlink:href="#DejaVuSans-37" x="95.410156"/>
      </g>
     </g>
    </g>
    <g id="ytick_14">
     <g id="line2d_38">
      <g>
       <use xlink:href="#me017e53eda" x="583.2" y="210.15" style="stroke: #000000; stroke-width: 0.8"/>
      </g>
     </g>
     <g id="text_32">
      <!-- 1.8 -->
      <g transform="translate(590.2 213.949219) scale(0.1 -0.1)">
       <use xlink:href="#DejaVuSans-31"/>
       <use xlink:href="#DejaVuSans-2e" x="63.623047"/>
       <use xlink:href="#DejaVuSans-38" x="95.410156"/>
      </g>
     </g>
    </g>
   </g>
   <g id="LineCollection_2">
    <path d="M 457.69941 200.663863 
L 457.69941 198.638448 
" clip-path="url(#pace3437423)" style="fill: none; stroke: #000000; stroke-width: 1.5"/>
    <path d="M 507.109091 207.622774 
L 507.109091 204.283634 
" clip-path="url(#pace3437423)" style="fill: none; stroke: #000000; stroke-width: 1.5"/>
    <path d="M 556.518772 308.472402 
L 556.518772 307.357978 
" clip-path="url(#pace3437423)" style="fill: none; stroke: #000000; stroke-width: 1.5"/>
   </g>
   <g id="line2d_39">
    <g clip-path="url(#pace3437423)">
     <use xlink:href="#m603f7712f4" x="457.69941" y="200.663863" style="stroke: #000000"/>
     <use xlink:href="#m603f7712f4" x="507.109091" y="207.622774" style="stroke: #000000"/>
     <use xlink:href="#m603f7712f4" x="556.518772" y="308.472402" style="stroke: #000000"/>
    </g>
   </g>
   <g id="line2d_40">
    <g clip-path="url(#pace3437423)">
     <use xlink:href="#m603f7712f4" x="457.69941" y="198.638448" style="stroke: #000000"/>
     <use xlink:href="#m603f7712f4" x="507.109091" y="204.283634" style="stroke: #000000"/>
     <use xlink:href="#m603f7712f4" x="556.518772" y="307.357978" style="stroke: #000000"/>
    </g>
   </g>
   <g id="patch_26">
    <path d="M 583.2 320.4 
L 583.2 194.4 
" style="fill: none; stroke: #000000; stroke-width: 0.8; stroke-linejoin: miter; stroke-linecap: square"/>
   </g>
   <g id="patch_27">
    <path d="M 431.018182 320.4 
L 583.2 320.4 
" style="fill: none; stroke: #000000; stroke-width: 0.8; stroke-linejoin: miter; stroke-linecap: square"/>
   </g>
   <g id="patch_28">
    <path d="M 431.018182 194.4 
L 583.2 194.4 
" style="fill: none; stroke: #000000; stroke-width: 0.8; stroke-linejoin: miter; stroke-linecap: square"/>
   </g>
  </g>
 </g>
 <defs>
  <clipPath id="p9019da6d80">
   <rect x="81" y="43.2" width="304.363636" height="126"/>
  </clipPath>
  <clipPath id="p56d46fedea">
   <rect x="431.018182" y="43.2" width="152.181818" height="126"/>
  </clipPath>
  <clipPath id="p8a94d602b4">
   <rect x="81" y="194.4" width="304.363636" height="126"/>
  </clipPath>
  <clipPath id="pace3437423">
   <rect x="431.018182" y="194.4" width="152.181818" height="126"/>
  </clipPath>
 </defs>
</svg>
