<?xml version="1.0" encoding="utf-8" standalone="no"?>
<!DOCTYPE svg PUBLIC "-//W3C//DTD SVG 1.1//EN"
  "http://www.w3.org/Graphics/SVG/1.1/DTD/svg11.dtd">
<svg xmlns:xlink="http://www.w3.org/1999/xlink" width="648pt" height="180pt" viewBox="0 0 648 180" xmlns="http://www.w3.org/2000/svg" version="1.1">
 <metadata>
  <rdf:RDF xmlns:dc="http://purl.org/dc/elements/1.1/" xmlns:cc="http://creativecommons.org/ns#" xmlns:rdf="http://www.w3.org/1999/02/22-rdf-syntax-ns#">
   <cc:Work>
    <dc:type rdf:resource="http://purl.org/dc/dcmitype/StillImage"/>
    <dc:date>2025-03-17T15:00:37.537896</dc:date>
    <dc:format>image/svg+xml</dc:format>
    <dc:creator>
     <cc:Agent>
      <dc:title>Matplotlib v3.7.1, https://matplotlib.org/</dc:title>
     </cc:Agent>
    </dc:creator>
   </cc:Work>
  </rdf:RDF>
 </metadata>
 <defs>
  <style type="text/css">*{stroke-linejoin: round; stroke-linecap: butt}</style>
 </defs>
 <g id="figure_1">
  <g id="patch_1">
   <path d="M 0 180 
L 648 180 
L 648 0 
L 0 0 
z
" style="fill: #ffffff"/>
  </g>
  <g id="axes_1">
   <g id="patch_2">
    <path d="M 81 160.2 
L 385.363636 160.2 
L 385.363636 21.6 
L 81 21.6 
z
" style="fill: #ffffff"/>
   </g>
   <g id="patch_3">
    <path d="M 385.363636 27.289432 
Q 385.363636 28.0342 385.363636 28.778968 
" style="fill: none; stroke: #000000; stroke-width: 0.75; stroke-linecap: round"/>
   </g>
   <g id="patch_4">
    <path d="M 385.363636 27.289432 
Q 408.008873 24.444716 430.65411 21.6 
" style="fill: none; stroke-dasharray: 2.775,1.2; stroke-dashoffset: 0; stroke: #000000; stroke-width: 0.75; stroke-linecap: round"/>
   </g>
   <g id="patch_5">
    <path d="M 385.363636 28.778968 
Q 408.008873 94.489484 430.65411 160.2 
" style="fill: none; stroke-dasharray: 2.775,1.2; stroke-dashoffset: 0; stroke: #000000; stroke-width: 0.75; stroke-linecap: round"/>
   </g>
   <g id="matplotlib.axis_1">
    <g id="xtick_1">
     <g id="line2d_1">
      <defs>
       <path id="mc85d9b6be3" d="M 0 0 
L 0 3.5 
" style="stroke: #000000; stroke-width: 0.8"/>
      </defs>
      <g>
       <use xlink:href="#mc85d9b6be3" x="95.34159" y="160.2" style="stroke: #000000; stroke-width: 0.8"/>
      </g>
     </g>
     <g id="text_1">
      <!-- 0 -->
      <g transform="translate(92.16034 174.798438) scale(0.1 -0.1)">
       <defs>
        <path id="DejaVuSans-30" d="M 2034 4250 
Q 1547 4250 1301 3770 
Q 1056 3291 1056 2328 
Q 1056 1369 1301 889 
Q 1547 409 2034 409 
Q 2525 409 2770 889 
Q 3016 1369 3016 2328 
Q 3016 3291 2770 3770 
Q 2525 4250 2034 4250 
z
M 2034 4750 
Q 2819 4750 3233 4129 
Q 3647 3509 3647 2328 
Q 3647 1150 3233 529 
Q 2819 -91 2034 -91 
Q 1250 -91 836 529 
Q 422 1150 422 2328 
Q 422 3509 836 4129 
Q 1250 4750 2034 4750 
z
" transform="scale(0.015625)"/>
       </defs>
       <use xlink:href="#DejaVuSans-30"/>
      </g>
     </g>
    </g>
    <g id="xtick_2">
     <g id="line2d_2">
      <g>
       <use xlink:href="#mc85d9b6be3" x="167.847102" y="160.2" style="stroke: #000000; stroke-width: 0.8"/>
      </g>
     </g>
     <g id="text_2">
      <!-- 5000 -->
      <g transform="translate(155.122102 174.798438) scale(0.1 -0.1)">
       <defs>
        <path id="DejaVuSans-35" d="M 691 4666 
L 3169 4666 
L 3169 4134 
L 1269 4134 
L 1269 2991 
Q 1406 3038 1543 3061 
Q 1681 3084 1819 3084 
Q 2600 3084 3056 2656 
Q 3513 2228 3513 1497 
Q 3513 744 3044 326 
Q 2575 -91 1722 -91 
Q 1428 -91 1123 -41 
Q 819 9 494 109 
L 494 744 
Q 775 591 1075 516 
Q 1375 441 1709 441 
Q 2250 441 2565 725 
Q 2881 1009 2881 1497 
Q 2881 1984 2565 2268 
Q 2250 2553 1709 2553 
Q 1456 2553 1204 2497 
Q 953 2441 691 2322 
L 691 4666 
z
" transform="scale(0.015625)"/>
       </defs>
       <use xlink:href="#DejaVuSans-35"/>
       <use xlink:href="#DejaVuSans-30" x="63.623047"/>
       <use xlink:href="#DejaVuSans-30" x="127.246094"/>
       <use xlink:href="#DejaVuSans-30" x="190.869141"/>
      </g>
     </g>
    </g>
    <g id="xtick_3">
     <g id="line2d_3">
      <g>
       <use xlink:href="#mc85d9b6be3" x="240.352613" y="160.2" style="stroke: #000000; stroke-width: 0.8"/>
      </g>
     </g>
     <g id="text_3">
      <!-- 10000 -->
      <g transform="translate(224.446363 174.798438) scale(0.1 -0.1)">
       <defs>
        <path id="DejaVuSans-31" d="M 794 531 
L 1825 531 
L 1825 4091 
L 703 3866 
L 703 4441 
L 1819 4666 
L 2450 4666 
L 2450 531 
L 3481 531 
L 3481 0 
L 794 0 
L 794 531 
z
" transform="scale(0.015625)"/>
       </defs>
       <use xlink:href="#DejaVuSans-31"/>
       <use xlink:href="#DejaVuSans-30" x="63.623047"/>
       <use xlink:href="#DejaVuSans-30" x="127.246094"/>
       <use xlink:href="#DejaVuSans-30" x="190.869141"/>
       <use xlink:href="#DejaVuSans-30" x="254.492188"/>
      </g>
     </g>
    </g>
    <g id="xtick_4">
     <g id="line2d_4">
      <g>
       <use xlink:href="#mc85d9b6be3" x="312.858125" y="160.2" style="stroke: #000000; stroke-width: 0.8"/>
      </g>
     </g>
     <g id="text_4">
      <!-- 15000 -->
      <g transform="translate(296.951875 174.798438) scale(0.1 -0.1)">
       <use xlink:href="#DejaVuSans-31"/>
       <use xlink:href="#DejaVuSans-35" x="63.623047"/>
       <use xlink:href="#DejaVuSans-30" x="127.246094"/>
       <use xlink:href="#DejaVuSans-30" x="190.869141"/>
       <use xlink:href="#DejaVuSans-30" x="254.492188"/>
      </g>
     </g>
    </g>
    <g id="xtick_5">
     <g id="line2d_5">
      <g>
       <use xlink:href="#mc85d9b6be3" x="385.363636" y="160.2" style="stroke: #000000; stroke-width: 0.8"/>
      </g>
     </g>
     <g id="text_5">
      <!-- 20000 -->
      <g transform="translate(369.457386 174.798438) scale(0.1 -0.1)">
       <defs>
        <path id="DejaVuSans-32" d="M 1228 531 
L 3431 531 
L 3431 0 
L 469 0 
L 469 531 
Q 828 903 1448 1529 
Q 2069 2156 2228 2338 
Q 2531 2678 2651 2914 
Q 2772 3150 2772 3378 
Q 2772 3750 2511 3984 
Q 2250 4219 1831 4219 
Q 1534 4219 1204 4116 
Q 875 4013 500 3803 
L 500 4441 
Q 881 4594 1212 4672 
Q 1544 4750 1819 4750 
Q 2544 4750 2975 4387 
Q 3406 4025 3406 3419 
Q 3406 3131 3298 2873 
Q 3191 2616 2906 2266 
Q 2828 2175 2409 1742 
Q 1991 1309 1228 531 
z
" transform="scale(0.015625)"/>
       </defs>
       <use xlink:href="#DejaVuSans-32"/>
       <use xlink:href="#DejaVuSans-30" x="63.623047"/>
       <use xlink:href="#DejaVuSans-30" x="127.246094"/>
       <use xlink:href="#DejaVuSans-30" x="190.869141"/>
       <use xlink:href="#DejaVuSans-30" x="254.492188"/>
      </g>
     </g>
    </g>
    <g id="text_6">
     <!-- Games played (Euclid) -->
     <g transform="translate(176.745099 188.476562) scale(0.1 -0.1)">
      <defs>
       <path id="DejaVuSans-47" d="M 3809 666 
L 3809 1919 
L 2778 1919 
L 2778 2438 
L 4434 2438 
L 4434 434 
Q 4069 175 3628 42 
Q 3188 -91 2688 -91 
Q 1594 -91 976 548 
Q 359 1188 359 2328 
Q 359 3472 976 4111 
Q 1594 4750 2688 4750 
Q 3144 4750 3555 4637 
Q 3966 4525 4313 4306 
L 4313 3634 
Q 3963 3931 3569 4081 
Q 3175 4231 2741 4231 
Q 1884 4231 1454 3753 
Q 1025 3275 1025 2328 
Q 1025 1384 1454 906 
Q 1884 428 2741 428 
Q 3075 428 3337 486 
Q 3600 544 3809 666 
z
" transform="scale(0.015625)"/>
       <path id="DejaVuSans-61" d="M 2194 1759 
Q 1497 1759 1228 1600 
Q 959 1441 959 1056 
Q 959 750 1161 570 
Q 1363 391 1709 391 
Q 2188 391 2477 730 
Q 2766 1069 2766 1631 
L 2766 1759 
L 2194 1759 
z
M 3341 1997 
L 3341 0 
L 2766 0 
L 2766 531 
Q 2569 213 2275 61 
Q 1981 -91 1556 -91 
Q 1019 -91 701 211 
Q 384 513 384 1019 
Q 384 1609 779 1909 
Q 1175 2209 1959 2209 
L 2766 2209 
L 2766 2266 
Q 2766 2663 2505 2880 
Q 2244 3097 1772 3097 
Q 1472 3097 1187 3025 
Q 903 2953 641 2809 
L 641 3341 
Q 956 3463 1253 3523 
Q 1550 3584 1831 3584 
Q 2591 3584 2966 3190 
Q 3341 2797 3341 1997 
z
" transform="scale(0.015625)"/>
       <path id="DejaVuSans-6d" d="M 3328 2828 
Q 3544 3216 3844 3400 
Q 4144 3584 4550 3584 
Q 5097 3584 5394 3201 
Q 5691 2819 5691 2113 
L 5691 0 
L 5113 0 
L 5113 2094 
Q 5113 2597 4934 2840 
Q 4756 3084 4391 3084 
Q 3944 3084 3684 2787 
Q 3425 2491 3425 1978 
L 3425 0 
L 2847 0 
L 2847 2094 
Q 2847 2600 2669 2842 
Q 2491 3084 2119 3084 
Q 1678 3084 1418 2786 
Q 1159 2488 1159 1978 
L 1159 0 
L 581 0 
L 581 3500 
L 1159 3500 
L 1159 2956 
Q 1356 3278 1631 3431 
Q 1906 3584 2284 3584 
Q 2666 3584 2933 3390 
Q 3200 3197 3328 2828 
z
" transform="scale(0.015625)"/>
       <path id="DejaVuSans-65" d="M 3597 1894 
L 3597 1613 
L 953 1613 
Q 991 1019 1311 708 
Q 1631 397 2203 397 
Q 2534 397 2845 478 
Q 3156 559 3463 722 
L 3463 178 
Q 3153 47 2828 -22 
Q 2503 -91 2169 -91 
Q 1331 -91 842 396 
Q 353 884 353 1716 
Q 353 2575 817 3079 
Q 1281 3584 2069 3584 
Q 2775 3584 3186 3129 
Q 3597 2675 3597 1894 
z
M 3022 2063 
Q 3016 2534 2758 2815 
Q 2500 3097 2075 3097 
Q 1594 3097 1305 2825 
Q 1016 2553 972 2059 
L 3022 2063 
z
" transform="scale(0.015625)"/>
       <path id="DejaVuSans-73" d="M 2834 3397 
L 2834 2853 
Q 2591 2978 2328 3040 
Q 2066 3103 1784 3103 
Q 1356 3103 1142 2972 
Q 928 2841 928 2578 
Q 928 2378 1081 2264 
Q 1234 2150 1697 2047 
L 1894 2003 
Q 2506 1872 2764 1633 
Q 3022 1394 3022 966 
Q 3022 478 2636 193 
Q 2250 -91 1575 -91 
Q 1294 -91 989 -36 
Q 684 19 347 128 
L 347 722 
Q 666 556 975 473 
Q 1284 391 1588 391 
Q 1994 391 2212 530 
Q 2431 669 2431 922 
Q 2431 1156 2273 1281 
Q 2116 1406 1581 1522 
L 1381 1569 
Q 847 1681 609 1914 
Q 372 2147 372 2553 
Q 372 3047 722 3315 
Q 1072 3584 1716 3584 
Q 2034 3584 2315 3537 
Q 2597 3491 2834 3397 
z
" transform="scale(0.015625)"/>
       <path id="DejaVuSans-20" transform="scale(0.015625)"/>
       <path id="DejaVuSans-70" d="M 1159 525 
L 1159 -1331 
L 581 -1331 
L 581 3500 
L 1159 3500 
L 1159 2969 
Q 1341 3281 1617 3432 
Q 1894 3584 2278 3584 
Q 2916 3584 3314 3078 
Q 3713 2572 3713 1747 
Q 3713 922 3314 415 
Q 2916 -91 2278 -91 
Q 1894 -91 1617 61 
Q 1341 213 1159 525 
z
M 3116 1747 
Q 3116 2381 2855 2742 
Q 2594 3103 2138 3103 
Q 1681 3103 1420 2742 
Q 1159 2381 1159 1747 
Q 1159 1113 1420 752 
Q 1681 391 2138 391 
Q 2594 391 2855 752 
Q 3116 1113 3116 1747 
z
" transform="scale(0.015625)"/>
       <path id="DejaVuSans-6c" d="M 603 4863 
L 1178 4863 
L 1178 0 
L 603 0 
L 603 4863 
z
" transform="scale(0.015625)"/>
       <path id="DejaVuSans-79" d="M 2059 -325 
Q 1816 -950 1584 -1140 
Q 1353 -1331 966 -1331 
L 506 -1331 
L 506 -850 
L 844 -850 
Q 1081 -850 1212 -737 
Q 1344 -625 1503 -206 
L 1606 56 
L 191 3500 
L 800 3500 
L 1894 763 
L 2988 3500 
L 3597 3500 
L 2059 -325 
z
" transform="scale(0.015625)"/>
       <path id="DejaVuSans-64" d="M 2906 2969 
L 2906 4863 
L 3481 4863 
L 3481 0 
L 2906 0 
L 2906 525 
Q 2725 213 2448 61 
Q 2172 -91 1784 -91 
Q 1150 -91 751 415 
Q 353 922 353 1747 
Q 353 2572 751 3078 
Q 1150 3584 1784 3584 
Q 2172 3584 2448 3432 
Q 2725 3281 2906 2969 
z
M 947 1747 
Q 947 1113 1208 752 
Q 1469 391 1925 391 
Q 2381 391 2643 752 
Q 2906 1113 2906 1747 
Q 2906 2381 2643 2742 
Q 2381 3103 1925 3103 
Q 1469 3103 1208 2742 
Q 947 2381 947 1747 
z
" transform="scale(0.015625)"/>
       <path id="DejaVuSans-28" d="M 1984 4856 
Q 1566 4138 1362 3434 
Q 1159 2731 1159 2009 
Q 1159 1288 1364 580 
Q 1569 -128 1984 -844 
L 1484 -844 
Q 1016 -109 783 600 
Q 550 1309 550 2009 
Q 550 2706 781 3412 
Q 1013 4119 1484 4856 
L 1984 4856 
z
" transform="scale(0.015625)"/>
       <path id="DejaVuSans-45" d="M 628 4666 
L 3578 4666 
L 3578 4134 
L 1259 4134 
L 1259 2753 
L 3481 2753 
L 3481 2222 
L 1259 2222 
L 1259 531 
L 3634 531 
L 3634 0 
L 628 0 
L 628 4666 
z
" transform="scale(0.015625)"/>
       <path id="DejaVuSans-75" d="M 544 1381 
L 544 3500 
L 1119 3500 
L 1119 1403 
Q 1119 906 1312 657 
Q 1506 409 1894 409 
Q 2359 409 2629 706 
Q 2900 1003 2900 1516 
L 2900 3500 
L 3475 3500 
L 3475 0 
L 2900 0 
L 2900 538 
Q 2691 219 2414 64 
Q 2138 -91 1772 -91 
Q 1169 -91 856 284 
Q 544 659 544 1381 
z
M 1991 3584 
L 1991 3584 
z
" transform="scale(0.015625)"/>
       <path id="DejaVuSans-63" d="M 3122 3366 
L 3122 2828 
Q 2878 2963 2633 3030 
Q 2388 3097 2138 3097 
Q 1578 3097 1268 2742 
Q 959 2388 959 1747 
Q 959 1106 1268 751 
Q 1578 397 2138 397 
Q 2388 397 2633 464 
Q 2878 531 3122 666 
L 3122 134 
Q 2881 22 2623 -34 
Q 2366 -91 2075 -91 
Q 1284 -91 818 406 
Q 353 903 353 1747 
Q 353 2603 823 3093 
Q 1294 3584 2113 3584 
Q 2378 3584 2631 3529 
Q 2884 3475 3122 3366 
z
" transform="scale(0.015625)"/>
       <path id="DejaVuSans-69" d="M 603 3500 
L 1178 3500 
L 1178 0 
L 603 0 
L 603 3500 
z
M 603 4863 
L 1178 4863 
L 1178 4134 
L 603 4134 
L 603 4863 
z
" transform="scale(0.015625)"/>
       <path id="DejaVuSans-29" d="M 513 4856 
L 1013 4856 
Q 1481 4119 1714 3412 
Q 1947 2706 1947 2009 
Q 1947 1309 1714 600 
Q 1481 -109 1013 -844 
L 513 -844 
Q 928 -128 1133 580 
Q 1338 1288 1338 2009 
Q 1338 2731 1133 3434 
Q 928 4138 513 4856 
z
" transform="scale(0.015625)"/>
      </defs>
      <use xlink:href="#DejaVuSans-47"/>
      <use xlink:href="#DejaVuSans-61" x="77.490234"/>
      <use xlink:href="#DejaVuSans-6d" x="138.769531"/>
      <use xlink:href="#DejaVuSans-65" x="236.181641"/>
      <use xlink:href="#DejaVuSans-73" x="297.705078"/>
      <use xlink:href="#DejaVuSans-20" x="349.804688"/>
      <use xlink:href="#DejaVuSans-70" x="381.591797"/>
      <use xlink:href="#DejaVuSans-6c" x="445.068359"/>
      <use xlink:href="#DejaVuSans-61" x="472.851562"/>
      <use xlink:href="#DejaVuSans-79" x="534.130859"/>
      <use xlink:href="#DejaVuSans-65" x="593.310547"/>
      <use xlink:href="#DejaVuSans-64" x="654.833984"/>
      <use xlink:href="#DejaVuSans-20" x="718.310547"/>
      <use xlink:href="#DejaVuSans-28" x="750.097656"/>
      <use xlink:href="#DejaVuSans-45" x="789.111328"/>
      <use xlink:href="#DejaVuSans-75" x="852.294922"/>
      <use xlink:href="#DejaVuSans-63" x="915.673828"/>
      <use xlink:href="#DejaVuSans-6c" x="970.654297"/>
      <use xlink:href="#DejaVuSans-69" x="998.4375"/>
      <use xlink:href="#DejaVuSans-64" x="1026.220703"/>
      <use xlink:href="#DejaVuSans-29" x="1089.697266"/>
     </g>
    </g>
   </g>
   <g id="matplotlib.axis_2">
    <g id="ytick_1">
     <g id="line2d_6">
      <defs>
       <path id="mca547a1223" d="M 0 0 
L -3.5 0 
" style="stroke: #000000; stroke-width: 0.8"/>
      </defs>
      <g>
       <use xlink:href="#mca547a1223" x="81" y="158.368608" style="stroke: #000000; stroke-width: 0.8"/>
      </g>
     </g>
     <g id="text_7">
      <!-- −0.4 -->
      <g transform="translate(49.717187 162.167827) scale(0.1 -0.1)">
       <defs>
        <path id="DejaVuSans-2212" d="M 678 2272 
L 4684 2272 
L 4684 1741 
L 678 1741 
L 678 2272 
z
" transform="scale(0.015625)"/>
        <path id="DejaVuSans-2e" d="M 684 794 
L 1344 794 
L 1344 0 
L 684 0 
L 684 794 
z
" transform="scale(0.015625)"/>
        <path id="DejaVuSans-34" d="M 2419 4116 
L 825 1625 
L 2419 1625 
L 2419 4116 
z
M 2253 4666 
L 3047 4666 
L 3047 1625 
L 3713 1625 
L 3713 1100 
L 3047 1100 
L 3047 0 
L 2419 0 
L 2419 1100 
L 313 1100 
L 313 1709 
L 2253 4666 
z
" transform="scale(0.015625)"/>
       </defs>
       <use xlink:href="#DejaVuSans-2212"/>
       <use xlink:href="#DejaVuSans-30" x="83.789062"/>
       <use xlink:href="#DejaVuSans-2e" x="147.412109"/>
       <use xlink:href="#DejaVuSans-34" x="179.199219"/>
      </g>
     </g>
    </g>
    <g id="ytick_2">
     <g id="line2d_7">
      <g>
       <use xlink:href="#mca547a1223" x="81" y="128.577886" style="stroke: #000000; stroke-width: 0.8"/>
      </g>
     </g>
     <g id="text_8">
      <!-- −0.2 -->
      <g transform="translate(49.717187 132.377105) scale(0.1 -0.1)">
       <use xlink:href="#DejaVuSans-2212"/>
       <use xlink:href="#DejaVuSans-30" x="83.789062"/>
       <use xlink:href="#DejaVuSans-2e" x="147.412109"/>
       <use xlink:href="#DejaVuSans-32" x="179.199219"/>
      </g>
     </g>
    </g>
    <g id="ytick_3">
     <g id="line2d_8">
      <g>
       <use xlink:href="#mca547a1223" x="81" y="98.787164" style="stroke: #000000; stroke-width: 0.8"/>
      </g>
     </g>
     <g id="text_9">
      <!-- 0.0 -->
      <g transform="translate(58.096875 102.586383) scale(0.1 -0.1)">
       <use xlink:href="#DejaVuSans-30"/>
       <use xlink:href="#DejaVuSans-2e" x="63.623047"/>
       <use xlink:href="#DejaVuSans-30" x="95.410156"/>
      </g>
     </g>
    </g>
    <g id="ytick_4">
     <g id="line2d_9">
      <g>
       <use xlink:href="#mca547a1223" x="81" y="68.996442" style="stroke: #000000; stroke-width: 0.8"/>
      </g>
     </g>
     <g id="text_10">
      <!-- 0.2 -->
      <g transform="translate(58.096875 72.795661) scale(0.1 -0.1)">
       <use xlink:href="#DejaVuSans-30"/>
       <use xlink:href="#DejaVuSans-2e" x="63.623047"/>
       <use xlink:href="#DejaVuSans-32" x="95.410156"/>
      </g>
     </g>
    </g>
    <g id="ytick_5">
     <g id="line2d_10">
      <g>
       <use xlink:href="#mca547a1223" x="81" y="39.205721" style="stroke: #000000; stroke-width: 0.8"/>
      </g>
     </g>
     <g id="text_11">
      <!-- 0.4 -->
      <g transform="translate(58.096875 43.004939) scale(0.1 -0.1)">
       <use xlink:href="#DejaVuSans-30"/>
       <use xlink:href="#DejaVuSans-2e" x="63.623047"/>
       <use xlink:href="#DejaVuSans-34" x="95.410156"/>
      </g>
     </g>
    </g>
    <g id="text_12">
     <!-- Average reward (Euclid) -->
     <g transform="translate(43.6375 150.857031) rotate(-90) scale(0.1 -0.1)">
      <defs>
       <path id="DejaVuSans-41" d="M 2188 4044 
L 1331 1722 
L 3047 1722 
L 2188 4044 
z
M 1831 4666 
L 2547 4666 
L 4325 0 
L 3669 0 
L 3244 1197 
L 1141 1197 
L 716 0 
L 50 0 
L 1831 4666 
z
" transform="scale(0.015625)"/>
       <path id="DejaVuSans-76" d="M 191 3500 
L 800 3500 
L 1894 563 
L 2988 3500 
L 3597 3500 
L 2284 0 
L 1503 0 
L 191 3500 
z
" transform="scale(0.015625)"/>
       <path id="DejaVuSans-72" d="M 2631 2963 
Q 2534 3019 2420 3045 
Q 2306 3072 2169 3072 
Q 1681 3072 1420 2755 
Q 1159 2438 1159 1844 
L 1159 0 
L 581 0 
L 581 3500 
L 1159 3500 
L 1159 2956 
Q 1341 3275 1631 3429 
Q 1922 3584 2338 3584 
Q 2397 3584 2469 3576 
Q 2541 3569 2628 3553 
L 2631 2963 
z
" transform="scale(0.015625)"/>
       <path id="DejaVuSans-67" d="M 2906 1791 
Q 2906 2416 2648 2759 
Q 2391 3103 1925 3103 
Q 1463 3103 1205 2759 
Q 947 2416 947 1791 
Q 947 1169 1205 825 
Q 1463 481 1925 481 
Q 2391 481 2648 825 
Q 2906 1169 2906 1791 
z
M 3481 434 
Q 3481 -459 3084 -895 
Q 2688 -1331 1869 -1331 
Q 1566 -1331 1297 -1286 
Q 1028 -1241 775 -1147 
L 775 -588 
Q 1028 -725 1275 -790 
Q 1522 -856 1778 -856 
Q 2344 -856 2625 -561 
Q 2906 -266 2906 331 
L 2906 616 
Q 2728 306 2450 153 
Q 2172 0 1784 0 
Q 1141 0 747 490 
Q 353 981 353 1791 
Q 353 2603 747 3093 
Q 1141 3584 1784 3584 
Q 2172 3584 2450 3431 
Q 2728 3278 2906 2969 
L 2906 3500 
L 3481 3500 
L 3481 434 
z
" transform="scale(0.015625)"/>
       <path id="DejaVuSans-77" d="M 269 3500 
L 844 3500 
L 1563 769 
L 2278 3500 
L 2956 3500 
L 3675 769 
L 4391 3500 
L 4966 3500 
L 4050 0 
L 3372 0 
L 2619 2869 
L 1863 0 
L 1184 0 
L 269 3500 
z
" transform="scale(0.015625)"/>
      </defs>
      <use xlink:href="#DejaVuSans-41"/>
      <use xlink:href="#DejaVuSans-76" x="62.533203"/>
      <use xlink:href="#DejaVuSans-65" x="121.712891"/>
      <use xlink:href="#DejaVuSans-72" x="183.236328"/>
      <use xlink:href="#DejaVuSans-61" x="224.349609"/>
      <use xlink:href="#DejaVuSans-67" x="285.628906"/>
      <use xlink:href="#DejaVuSans-65" x="349.105469"/>
      <use xlink:href="#DejaVuSans-20" x="410.628906"/>
      <use xlink:href="#DejaVuSans-72" x="442.416016"/>
      <use xlink:href="#DejaVuSans-65" x="481.279297"/>
      <use xlink:href="#DejaVuSans-77" x="542.802734"/>
      <use xlink:href="#DejaVuSans-61" x="624.589844"/>
      <use xlink:href="#DejaVuSans-72" x="685.869141"/>
      <use xlink:href="#DejaVuSans-64" x="725.232422"/>
      <use xlink:href="#DejaVuSans-20" x="788.708984"/>
      <use xlink:href="#DejaVuSans-28" x="820.496094"/>
      <use xlink:href="#DejaVuSans-45" x="859.509766"/>
      <use xlink:href="#DejaVuSans-75" x="922.693359"/>
      <use xlink:href="#DejaVuSans-63" x="986.072266"/>
      <use xlink:href="#DejaVuSans-6c" x="1041.052734"/>
      <use xlink:href="#DejaVuSans-69" x="1068.835938"/>
      <use xlink:href="#DejaVuSans-64" x="1096.619141"/>
      <use xlink:href="#DejaVuSans-29" x="1160.095703"/>
     </g>
    </g>
   </g>
   <g id="line2d_11">
    <path d="M 95.486601 153.9 
L 95.776623 134.48638 
L 96.066645 125.866931 
L 96.501678 119.975815 
L 98.386822 103.050075 
L 99.256888 97.650704 
L 100.561987 91.550502 
L 101.432053 88.066051 
L 102.882163 81.992645 
L 104.187263 75.464936 
L 104.622296 73.732702 
L 106.362428 67.936128 
L 107.522516 64.880712 
L 108.827615 62.002029 
L 109.987704 59.843907 
L 111.437814 57.115044 
L 112.887924 54.925866 
L 113.177946 54.563685 
L 114.048012 53.440605 
L 114.338034 53.125492 
L 115.788144 51.475906 
L 117.673288 49.639244 
L 118.688365 48.672139 
L 121.008541 46.838541 
L 122.458652 45.854468 
L 123.763751 45.068869 
L 127.679048 42.940248 
L 129.709203 41.989959 
L 130.72428 41.623775 
L 131.884368 41.117883 
L 133.189467 40.626202 
L 134.784588 40.083561 
L 137.104765 39.347433 
L 137.684809 39.223575 
L 140.875051 38.32291 
L 142.615184 37.933675 
L 148.850658 36.605693 
L 153.055977 35.885702 
L 156.101209 35.412914 
L 159.726484 34.938401 
L 161.176595 34.725957 
L 164.656859 34.336683 
L 166.977036 34.104813 
L 168.717168 33.900794 
L 173.357521 33.455779 
L 174.66262 33.358134 
L 185.103413 32.58679 
L 188.8737 32.349929 
L 196.269262 31.903783 
L 201.344648 31.621109 
L 206.565045 31.380121 
L 215.120695 31.004616 
L 268.919785 29.446708 
L 277.040402 29.284316 
L 283.420887 29.160482 
L 295.456802 28.959007 
L 300.097155 28.875598 
L 307.057684 28.768255 
L 315.613334 28.642076 
L 330.694481 28.449673 
L 340.120197 28.332195 
L 346.500682 28.263822 
L 355.636377 28.170457 
L 385.218625 27.9 
L 385.218625 27.9 
" clip-path="url(#p9dabe0987e)" style="fill: none; stroke: #d8bfd8; stroke-width: 3; stroke-linecap: square"/>
   </g>
   <g id="line2d_12">
    <path d="M 95.486601 153.9 
L 95.776623 134.48638 
L 96.066645 125.866931 
L 96.501678 119.975815 
L 98.386822 103.050075 
L 99.256888 97.650704 
L 100.561987 91.550502 
L 101.432053 88.066051 
L 103.172185 80.661717 
L 104.477285 75.065711 
L 105.927395 70.396198 
L 107.232494 66.872945 
L 111.147792 59.102643 
L 111.727836 58.271783 
L 112.887924 56.665299 
L 113.467968 55.898058 
L 114.338034 54.740104 
L 115.788144 53.184119 
L 116.948233 51.968746 
L 117.96331 50.911947 
L 119.41342 49.588505 
L 120.138475 49.008784 
L 120.718519 48.548942 
L 122.168629 47.471438 
L 123.908762 46.238297 
L 124.488806 45.875285 
L 125.648894 45.175268 
L 131.449335 42.34571 
L 132.319401 41.982683 
L 136.524721 40.469728 
L 138.264853 39.952501 
L 140.295007 39.36044 
L 144.355316 38.320372 
L 145.515404 38.048532 
L 147.400547 37.631957 
L 156.391231 36.010471 
L 162.916727 35.111734 
L 167.702091 34.539801 
L 169.297212 34.366189 
L 184.088336 33.02658 
L 186.553524 32.861102 
L 189.888777 32.617036 
L 197.284339 32.142819 
L 199.024472 32.042614 
L 201.489659 31.899058 
L 228.171687 30.734716 
L 230.926897 30.627108 
L 243.107823 30.262657 
L 250.793407 30.052577 
L 272.110027 29.560394 
L 344.470528 28.377019 
L 385.218625 27.953129 
L 385.218625 27.953129 
" clip-path="url(#p9dabe0987e)" style="fill: none; stroke-dasharray: 11.1,4.8; stroke-dashoffset: 0; stroke: #dda0dd; stroke-width: 3"/>
   </g>
   <g id="line2d_13">
    <path d="M 95.486601 153.9 
L 95.776623 134.48638 
L 96.066645 125.866931 
L 96.501678 119.975815 
L 98.386822 103.050075 
L 99.256888 97.650704 
L 100.561987 91.550502 
L 101.432053 88.066051 
L 104.767307 75.043959 
L 106.797461 69.365998 
L 108.10256 66.481158 
L 112.162869 58.935653 
L 114.483045 55.712489 
L 116.658211 53.274237 
L 120.283486 49.791819 
L 121.443574 48.844674 
L 125.06885 46.349681 
L 126.51896 45.522739 
L 127.824059 44.784166 
L 131.884368 42.806615 
L 133.189467 42.272681 
L 134.929599 41.579703 
L 137.539798 40.658402 
L 140.585029 39.679317 
L 142.03514 39.289912 
L 144.500327 38.635391 
L 145.225382 38.492995 
L 146.240459 38.219062 
L 147.980592 37.828618 
L 150.880812 37.202042 
L 152.0409 37.017131 
L 161.756639 35.43895 
L 169.732245 34.480726 
L 172.052421 34.250831 
L 173.647543 34.085854 
L 192.788998 32.571522 
L 213.960607 31.471605 
L 257.028881 30.060904 
L 261.379212 29.969556 
L 266.309586 29.845142 
L 364.482049 28.233313 
L 379.273173 28.088365 
L 385.218625 28.032635 
L 385.218625 28.032635 
" clip-path="url(#p9dabe0987e)" style="fill: none; stroke-dasharray: 19.2,4.8,3,4.8; stroke-dashoffset: 0; stroke: #db7093; stroke-width: 3"/>
   </g>
   <g id="line2d_14">
    <path d="M 95.486601 153.9 
L 95.776623 134.48638 
L 96.066645 125.866931 
L 96.501678 119.975815 
L 98.386822 103.050075 
L 99.256888 97.650704 
L 100.561987 91.550502 
L 101.432053 88.066051 
L 104.912318 74.552864 
L 105.782384 71.992065 
L 106.797461 69.375426 
L 108.392582 65.832006 
L 112.162869 59.016551 
L 115.643133 54.462826 
L 119.558431 50.378133 
L 125.06885 46.332243 
L 130.579269 43.386229 
L 131.739357 42.903449 
L 133.334478 42.21265 
L 140.004985 39.927759 
L 143.920283 38.868685 
L 152.910966 36.966914 
L 154.651099 36.674238 
L 158.711407 36.005434 
L 175.822708 33.967116 
L 203.229791 32.011101 
L 210.915376 31.624599 
L 255.143738 30.076027 
L 262.104267 29.903114 
L 268.919785 29.734287 
L 340.265208 28.533093 
L 347.950792 28.446174 
L 354.621299 28.373094 
L 363.611983 28.286616 
L 375.93792 28.165833 
L 385.218625 28.089564 
L 385.218625 28.089564 
" clip-path="url(#p9dabe0987e)" style="fill: none; stroke-dasharray: 3,4.95; stroke-dashoffset: 0; stroke: #f4a460; stroke-width: 3"/>
   </g>
   <g id="patch_6">
    <path d="M 81 160.2 
L 81 21.6 
" style="fill: none; stroke: #000000; stroke-width: 0.8; stroke-linejoin: miter; stroke-linecap: square"/>
   </g>
   <g id="patch_7">
    <path d="M 81 160.2 
L 385.363636 160.2 
" style="fill: none; stroke: #000000; stroke-width: 0.8; stroke-linejoin: miter; stroke-linecap: square"/>
   </g>
   <g id="text_13">
    <!-- Cumulative average reward across training (Euclid) -->
    <g transform="translate(78.869318 15.6) scale(0.12 -0.12)">
     <defs>
      <path id="DejaVuSans-43" d="M 4122 4306 
L 4122 3641 
Q 3803 3938 3442 4084 
Q 3081 4231 2675 4231 
Q 1875 4231 1450 3742 
Q 1025 3253 1025 2328 
Q 1025 1406 1450 917 
Q 1875 428 2675 428 
Q 3081 428 3442 575 
Q 3803 722 4122 1019 
L 4122 359 
Q 3791 134 3420 21 
Q 3050 -91 2638 -91 
Q 1578 -91 968 557 
Q 359 1206 359 2328 
Q 359 3453 968 4101 
Q 1578 4750 2638 4750 
Q 3056 4750 3426 4639 
Q 3797 4528 4122 4306 
z
" transform="scale(0.015625)"/>
      <path id="DejaVuSans-74" d="M 1172 4494 
L 1172 3500 
L 2356 3500 
L 2356 3053 
L 1172 3053 
L 1172 1153 
Q 1172 725 1289 603 
Q 1406 481 1766 481 
L 2356 481 
L 2356 0 
L 1766 0 
Q 1100 0 847 248 
Q 594 497 594 1153 
L 594 3053 
L 172 3053 
L 172 3500 
L 594 3500 
L 594 4494 
L 1172 4494 
z
" transform="scale(0.015625)"/>
      <path id="DejaVuSans-6f" d="M 1959 3097 
Q 1497 3097 1228 2736 
Q 959 2375 959 1747 
Q 959 1119 1226 758 
Q 1494 397 1959 397 
Q 2419 397 2687 759 
Q 2956 1122 2956 1747 
Q 2956 2369 2687 2733 
Q 2419 3097 1959 3097 
z
M 1959 3584 
Q 2709 3584 3137 3096 
Q 3566 2609 3566 1747 
Q 3566 888 3137 398 
Q 2709 -91 1959 -91 
Q 1206 -91 779 398 
Q 353 888 353 1747 
Q 353 2609 779 3096 
Q 1206 3584 1959 3584 
z
" transform="scale(0.015625)"/>
      <path id="DejaVuSans-6e" d="M 3513 2113 
L 3513 0 
L 2938 0 
L 2938 2094 
Q 2938 2591 2744 2837 
Q 2550 3084 2163 3084 
Q 1697 3084 1428 2787 
Q 1159 2491 1159 1978 
L 1159 0 
L 581 0 
L 581 3500 
L 1159 3500 
L 1159 2956 
Q 1366 3272 1645 3428 
Q 1925 3584 2291 3584 
Q 2894 3584 3203 3211 
Q 3513 2838 3513 2113 
z
" transform="scale(0.015625)"/>
     </defs>
     <use xlink:href="#DejaVuSans-43"/>
     <use xlink:href="#DejaVuSans-75" x="69.824219"/>
     <use xlink:href="#DejaVuSans-6d" x="133.203125"/>
     <use xlink:href="#DejaVuSans-75" x="230.615234"/>
     <use xlink:href="#DejaVuSans-6c" x="293.994141"/>
     <use xlink:href="#DejaVuSans-61" x="321.777344"/>
     <use xlink:href="#DejaVuSans-74" x="383.056641"/>
     <use xlink:href="#DejaVuSans-69" x="422.265625"/>
     <use xlink:href="#DejaVuSans-76" x="450.048828"/>
     <use xlink:href="#DejaVuSans-65" x="509.228516"/>
     <use xlink:href="#DejaVuSans-20" x="570.751953"/>
     <use xlink:href="#DejaVuSans-61" x="602.539062"/>
     <use xlink:href="#DejaVuSans-76" x="663.818359"/>
     <use xlink:href="#DejaVuSans-65" x="722.998047"/>
     <use xlink:href="#DejaVuSans-72" x="784.521484"/>
     <use xlink:href="#DejaVuSans-61" x="825.634766"/>
     <use xlink:href="#DejaVuSans-67" x="886.914062"/>
     <use xlink:href="#DejaVuSans-65" x="950.390625"/>
     <use xlink:href="#DejaVuSans-20" x="1011.914062"/>
     <use xlink:href="#DejaVuSans-72" x="1043.701172"/>
     <use xlink:href="#DejaVuSans-65" x="1082.564453"/>
     <use xlink:href="#DejaVuSans-77" x="1144.087891"/>
     <use xlink:href="#DejaVuSans-61" x="1225.875"/>
     <use xlink:href="#DejaVuSans-72" x="1287.154297"/>
     <use xlink:href="#DejaVuSans-64" x="1326.517578"/>
     <use xlink:href="#DejaVuSans-20" x="1389.994141"/>
     <use xlink:href="#DejaVuSans-61" x="1421.78125"/>
     <use xlink:href="#DejaVuSans-63" x="1483.060547"/>
     <use xlink:href="#DejaVuSans-72" x="1538.041016"/>
     <use xlink:href="#DejaVuSans-6f" x="1576.904297"/>
     <use xlink:href="#DejaVuSans-73" x="1638.085938"/>
     <use xlink:href="#DejaVuSans-73" x="1690.185547"/>
     <use xlink:href="#DejaVuSans-20" x="1742.285156"/>
     <use xlink:href="#DejaVuSans-74" x="1774.072266"/>
     <use xlink:href="#DejaVuSans-72" x="1813.28125"/>
     <use xlink:href="#DejaVuSans-61" x="1854.394531"/>
     <use xlink:href="#DejaVuSans-69" x="1915.673828"/>
     <use xlink:href="#DejaVuSans-6e" x="1943.457031"/>
     <use xlink:href="#DejaVuSans-69" x="2006.835938"/>
     <use xlink:href="#DejaVuSans-6e" x="2034.619141"/>
     <use xlink:href="#DejaVuSans-67" x="2097.998047"/>
     <use xlink:href="#DejaVuSans-20" x="2161.474609"/>
     <use xlink:href="#DejaVuSans-28" x="2193.261719"/>
     <use xlink:href="#DejaVuSans-45" x="2232.275391"/>
     <use xlink:href="#DejaVuSans-75" x="2295.458984"/>
     <use xlink:href="#DejaVuSans-63" x="2358.837891"/>
     <use xlink:href="#DejaVuSans-6c" x="2413.818359"/>
     <use xlink:href="#DejaVuSans-69" x="2441.601562"/>
     <use xlink:href="#DejaVuSans-64" x="2469.384766"/>
     <use xlink:href="#DejaVuSans-29" x="2532.861328"/>
    </g>
   </g>
   <g id="legend_1">
    <g id="patch_8">
     <path d="M 138.041761 155.2 
L 378.363636 155.2 
Q 380.363636 155.2 380.363636 153.2 
L 380.363636 80.809375 
Q 380.363636 78.809375 378.363636 78.809375 
L 138.041761 78.809375 
Q 136.041761 78.809375 136.041761 80.809375 
L 136.041761 153.2 
Q 136.041761 155.2 138.041761 155.2 
z
" style="fill: #ffffff; opacity: 0.8; stroke: #cccccc; stroke-linejoin: miter"/>
    </g>
    <g id="text_14">
     <!-- Agent (Wythoff's pretraining to Euclid learning) -->
     <g transform="translate(140.041761 90.407813) scale(0.1 -0.1)">
      <defs>
       <path id="DejaVuSans-57" d="M 213 4666 
L 850 4666 
L 1831 722 
L 2809 4666 
L 3519 4666 
L 4500 722 
L 5478 4666 
L 6119 4666 
L 4947 0 
L 4153 0 
L 3169 4050 
L 2175 0 
L 1381 0 
L 213 4666 
z
" transform="scale(0.015625)"/>
       <path id="DejaVuSans-68" d="M 3513 2113 
L 3513 0 
L 2938 0 
L 2938 2094 
Q 2938 2591 2744 2837 
Q 2550 3084 2163 3084 
Q 1697 3084 1428 2787 
Q 1159 2491 1159 1978 
L 1159 0 
L 581 0 
L 581 4863 
L 1159 4863 
L 1159 2956 
Q 1366 3272 1645 3428 
Q 1925 3584 2291 3584 
Q 2894 3584 3203 3211 
Q 3513 2838 3513 2113 
z
" transform="scale(0.015625)"/>
       <path id="DejaVuSans-66" d="M 2375 4863 
L 2375 4384 
L 1825 4384 
Q 1516 4384 1395 4259 
Q 1275 4134 1275 3809 
L 1275 3500 
L 2222 3500 
L 2222 3053 
L 1275 3053 
L 1275 0 
L 697 0 
L 697 3053 
L 147 3053 
L 147 3500 
L 697 3500 
L 697 3744 
Q 697 4328 969 4595 
Q 1241 4863 1831 4863 
L 2375 4863 
z
" transform="scale(0.015625)"/>
       <path id="DejaVuSans-27" d="M 1147 4666 
L 1147 2931 
L 616 2931 
L 616 4666 
L 1147 4666 
z
" transform="scale(0.015625)"/>
      </defs>
      <use xlink:href="#DejaVuSans-41"/>
      <use xlink:href="#DejaVuSans-67" x="68.408203"/>
      <use xlink:href="#DejaVuSans-65" x="131.884766"/>
      <use xlink:href="#DejaVuSans-6e" x="193.408203"/>
      <use xlink:href="#DejaVuSans-74" x="256.787109"/>
      <use xlink:href="#DejaVuSans-20" x="295.996094"/>
      <use xlink:href="#DejaVuSans-28" x="327.783203"/>
      <use xlink:href="#DejaVuSans-57" x="366.796875"/>
      <use xlink:href="#DejaVuSans-79" x="463.923828"/>
      <use xlink:href="#DejaVuSans-74" x="523.103516"/>
      <use xlink:href="#DejaVuSans-68" x="562.3125"/>
      <use xlink:href="#DejaVuSans-6f" x="625.691406"/>
      <use xlink:href="#DejaVuSans-66" x="686.873047"/>
      <use xlink:href="#DejaVuSans-66" x="722.078125"/>
      <use xlink:href="#DejaVuSans-27" x="757.283203"/>
      <use xlink:href="#DejaVuSans-73" x="784.773438"/>
      <use xlink:href="#DejaVuSans-20" x="836.873047"/>
      <use xlink:href="#DejaVuSans-70" x="868.660156"/>
      <use xlink:href="#DejaVuSans-72" x="932.136719"/>
      <use xlink:href="#DejaVuSans-65" x="971"/>
      <use xlink:href="#DejaVuSans-74" x="1032.523438"/>
      <use xlink:href="#DejaVuSans-72" x="1071.732422"/>
      <use xlink:href="#DejaVuSans-61" x="1112.845703"/>
      <use xlink:href="#DejaVuSans-69" x="1174.125"/>
      <use xlink:href="#DejaVuSans-6e" x="1201.908203"/>
      <use xlink:href="#DejaVuSans-69" x="1265.287109"/>
      <use xlink:href="#DejaVuSans-6e" x="1293.070312"/>
      <use xlink:href="#DejaVuSans-67" x="1356.449219"/>
      <use xlink:href="#DejaVuSans-20" x="1419.925781"/>
      <use xlink:href="#DejaVuSans-74" x="1451.712891"/>
      <use xlink:href="#DejaVuSans-6f" x="1490.921875"/>
      <use xlink:href="#DejaVuSans-20" x="1552.103516"/>
      <use xlink:href="#DejaVuSans-45" x="1583.890625"/>
      <use xlink:href="#DejaVuSans-75" x="1647.074219"/>
      <use xlink:href="#DejaVuSans-63" x="1710.453125"/>
      <use xlink:href="#DejaVuSans-6c" x="1765.433594"/>
      <use xlink:href="#DejaVuSans-69" x="1793.216797"/>
      <use xlink:href="#DejaVuSans-64" x="1821"/>
      <use xlink:href="#DejaVuSans-20" x="1884.476562"/>
      <use xlink:href="#DejaVuSans-6c" x="1916.263672"/>
      <use xlink:href="#DejaVuSans-65" x="1944.046875"/>
      <use xlink:href="#DejaVuSans-61" x="2005.570312"/>
      <use xlink:href="#DejaVuSans-72" x="2066.849609"/>
      <use xlink:href="#DejaVuSans-6e" x="2106.212891"/>
      <use xlink:href="#DejaVuSans-69" x="2169.591797"/>
      <use xlink:href="#DejaVuSans-6e" x="2197.375"/>
      <use xlink:href="#DejaVuSans-67" x="2260.753906"/>
      <use xlink:href="#DejaVuSans-29" x="2324.230469"/>
     </g>
    </g>
    <g id="line2d_15">
     <path d="M 176.087855 101.585938 
L 186.087855 101.585938 
L 196.087855 101.585938 
" style="fill: none; stroke: #d8bfd8; stroke-width: 3; stroke-linecap: square"/>
    </g>
    <g id="text_15">
     <!-- naive-to-imagination -->
     <g transform="translate(204.087855 105.085938) scale(0.1 -0.1)">
      <defs>
       <path id="DejaVuSans-2d" d="M 313 2009 
L 1997 2009 
L 1997 1497 
L 313 1497 
L 313 2009 
z
" transform="scale(0.015625)"/>
      </defs>
      <use xlink:href="#DejaVuSans-6e"/>
      <use xlink:href="#DejaVuSans-61" x="63.378906"/>
      <use xlink:href="#DejaVuSans-69" x="124.658203"/>
      <use xlink:href="#DejaVuSans-76" x="152.441406"/>
      <use xlink:href="#DejaVuSans-65" x="211.621094"/>
      <use xlink:href="#DejaVuSans-2d" x="273.144531"/>
      <use xlink:href="#DejaVuSans-74" x="309.228516"/>
      <use xlink:href="#DejaVuSans-6f" x="348.4375"/>
      <use xlink:href="#DejaVuSans-2d" x="411.494141"/>
      <use xlink:href="#DejaVuSans-69" x="447.578125"/>
      <use xlink:href="#DejaVuSans-6d" x="475.361328"/>
      <use xlink:href="#DejaVuSans-61" x="572.773438"/>
      <use xlink:href="#DejaVuSans-67" x="634.052734"/>
      <use xlink:href="#DejaVuSans-69" x="697.529297"/>
      <use xlink:href="#DejaVuSans-6e" x="725.3125"/>
      <use xlink:href="#DejaVuSans-61" x="788.691406"/>
      <use xlink:href="#DejaVuSans-74" x="849.970703"/>
      <use xlink:href="#DejaVuSans-69" x="889.179688"/>
      <use xlink:href="#DejaVuSans-6f" x="916.962891"/>
      <use xlink:href="#DejaVuSans-6e" x="978.144531"/>
     </g>
    </g>
    <g id="line2d_16">
     <path d="M 176.087855 116.264062 
L 186.087855 116.264062 
L 196.087855 116.264062 
" style="fill: none; stroke-dasharray: 11.1,4.8; stroke-dashoffset: 0; stroke: #dda0dd; stroke-width: 3"/>
    </g>
    <g id="text_16">
     <!-- imagination-to-imagination -->
     <g transform="translate(204.087855 119.764062) scale(0.1 -0.1)">
      <use xlink:href="#DejaVuSans-69"/>
      <use xlink:href="#DejaVuSans-6d" x="27.783203"/>
      <use xlink:href="#DejaVuSans-61" x="125.195312"/>
      <use xlink:href="#DejaVuSans-67" x="186.474609"/>
      <use xlink:href="#DejaVuSans-69" x="249.951172"/>
      <use xlink:href="#DejaVuSans-6e" x="277.734375"/>
      <use xlink:href="#DejaVuSans-61" x="341.113281"/>
      <use xlink:href="#DejaVuSans-74" x="402.392578"/>
      <use xlink:href="#DejaVuSans-69" x="441.601562"/>
      <use xlink:href="#DejaVuSans-6f" x="469.384766"/>
      <use xlink:href="#DejaVuSans-6e" x="530.566406"/>
      <use xlink:href="#DejaVuSans-2d" x="593.945312"/>
      <use xlink:href="#DejaVuSans-74" x="630.029297"/>
      <use xlink:href="#DejaVuSans-6f" x="669.238281"/>
      <use xlink:href="#DejaVuSans-2d" x="732.294922"/>
      <use xlink:href="#DejaVuSans-69" x="768.378906"/>
      <use xlink:href="#DejaVuSans-6d" x="796.162109"/>
      <use xlink:href="#DejaVuSans-61" x="893.574219"/>
      <use xlink:href="#DejaVuSans-67" x="954.853516"/>
      <use xlink:href="#DejaVuSans-69" x="1018.330078"/>
      <use xlink:href="#DejaVuSans-6e" x="1046.113281"/>
      <use xlink:href="#DejaVuSans-61" x="1109.492188"/>
      <use xlink:href="#DejaVuSans-74" x="1170.771484"/>
      <use xlink:href="#DejaVuSans-69" x="1209.980469"/>
      <use xlink:href="#DejaVuSans-6f" x="1237.763672"/>
      <use xlink:href="#DejaVuSans-6e" x="1298.945312"/>
     </g>
    </g>
    <g id="line2d_17">
     <path d="M 176.087855 130.942187 
L 186.087855 130.942187 
L 196.087855 130.942187 
" style="fill: none; stroke-dasharray: 19.2,4.8,3,4.8; stroke-dashoffset: 0; stroke: #db7093; stroke-width: 3"/>
    </g>
    <g id="text_17">
     <!-- imagination-to-replay -->
     <g transform="translate(204.087855 134.442187) scale(0.1 -0.1)">
      <use xlink:href="#DejaVuSans-69"/>
      <use xlink:href="#DejaVuSans-6d" x="27.783203"/>
      <use xlink:href="#DejaVuSans-61" x="125.195312"/>
      <use xlink:href="#DejaVuSans-67" x="186.474609"/>
      <use xlink:href="#DejaVuSans-69" x="249.951172"/>
      <use xlink:href="#DejaVuSans-6e" x="277.734375"/>
      <use xlink:href="#DejaVuSans-61" x="341.113281"/>
      <use xlink:href="#DejaVuSans-74" x="402.392578"/>
      <use xlink:href="#DejaVuSans-69" x="441.601562"/>
      <use xlink:href="#DejaVuSans-6f" x="469.384766"/>
      <use xlink:href="#DejaVuSans-6e" x="530.566406"/>
      <use xlink:href="#DejaVuSans-2d" x="593.945312"/>
      <use xlink:href="#DejaVuSans-74" x="630.029297"/>
      <use xlink:href="#DejaVuSans-6f" x="669.238281"/>
      <use xlink:href="#DejaVuSans-2d" x="732.294922"/>
      <use xlink:href="#DejaVuSans-72" x="768.378906"/>
      <use xlink:href="#DejaVuSans-65" x="807.242188"/>
      <use xlink:href="#DejaVuSans-70" x="868.765625"/>
      <use xlink:href="#DejaVuSans-6c" x="932.242188"/>
      <use xlink:href="#DejaVuSans-61" x="960.025391"/>
      <use xlink:href="#DejaVuSans-79" x="1021.304688"/>
     </g>
    </g>
    <g id="line2d_18">
     <path d="M 176.087855 145.620313 
L 186.087855 145.620313 
L 196.087855 145.620313 
" style="fill: none; stroke-dasharray: 3,4.95; stroke-dashoffset: 0; stroke: #f4a460; stroke-width: 3"/>
    </g>
    <g id="text_18">
     <!-- replay-to-replay -->
     <g transform="translate(204.087855 149.120313) scale(0.1 -0.1)">
      <use xlink:href="#DejaVuSans-72"/>
      <use xlink:href="#DejaVuSans-65" x="38.863281"/>
      <use xlink:href="#DejaVuSans-70" x="100.386719"/>
      <use xlink:href="#DejaVuSans-6c" x="163.863281"/>
      <use xlink:href="#DejaVuSans-61" x="191.646484"/>
      <use xlink:href="#DejaVuSans-79" x="252.925781"/>
      <use xlink:href="#DejaVuSans-2d" x="310.355469"/>
      <use xlink:href="#DejaVuSans-74" x="346.439453"/>
      <use xlink:href="#DejaVuSans-6f" x="385.648438"/>
      <use xlink:href="#DejaVuSans-2d" x="448.705078"/>
      <use xlink:href="#DejaVuSans-72" x="484.789062"/>
      <use xlink:href="#DejaVuSans-65" x="523.652344"/>
      <use xlink:href="#DejaVuSans-70" x="585.175781"/>
      <use xlink:href="#DejaVuSans-6c" x="648.652344"/>
      <use xlink:href="#DejaVuSans-61" x="676.435547"/>
      <use xlink:href="#DejaVuSans-79" x="737.714844"/>
     </g>
    </g>
   </g>
  </g>
  <g id="axes_2">
   <g id="patch_9">
    <path d="M 431.018182 160.2 
L 583.2 160.2 
L 583.2 21.6 
L 431.018182 21.6 
z
" style="fill: #ffffff"/>
   </g>
   <g id="patch_10">
    <path d="M 437.935537 6674.4 
L 467.061244 6674.4 
L 467.061244 78.412826 
L 437.935537 78.412826 
z
" clip-path="url(#ped0e0134b9)" style="fill: #d8bfd8"/>
   </g>
   <g id="patch_11">
    <path d="M 474.342671 6674.4 
L 503.468378 6674.4 
L 503.468378 83.356388 
L 474.342671 83.356388 
z
" clip-path="url(#ped0e0134b9)" style="fill: #dda0dd"/>
   </g>
   <g id="patch_12">
    <path d="M 510.749804 6674.4 
L 539.875511 6674.4 
L 539.875511 90.754397 
L 510.749804 90.754397 
z
" clip-path="url(#ped0e0134b9)" style="fill: #db7093"/>
   </g>
   <g id="patch_13">
    <path d="M 547.156938 6674.4 
L 576.282645 6674.4 
L 576.282645 96.051566 
L 547.156938 96.051566 
z
" clip-path="url(#ped0e0134b9)" style="fill: #f4a460"/>
   </g>
   <g id="matplotlib.axis_3">
    <g id="xtick_6">
     <g id="line2d_19">
      <g>
       <use xlink:href="#mc85d9b6be3" x="452.498391" y="160.2" style="stroke: #000000; stroke-width: 0.8"/>
      </g>
     </g>
     <g id="text_19">
      <!-- naive -->
      <g transform="translate(438.840578 174.798438) scale(0.1 -0.1)">
       <use xlink:href="#DejaVuSans-6e"/>
       <use xlink:href="#DejaVuSans-61" x="63.378906"/>
       <use xlink:href="#DejaVuSans-69" x="124.658203"/>
       <use xlink:href="#DejaVuSans-76" x="152.441406"/>
       <use xlink:href="#DejaVuSans-65" x="211.621094"/>
      </g>
      <!-- to -->
      <g transform="translate(447.478859 185.99625) scale(0.1 -0.1)">
       <use xlink:href="#DejaVuSans-74"/>
       <use xlink:href="#DejaVuSans-6f" x="39.208984"/>
      </g>
      <!-- img -->
      <g transform="translate(443.064797 197.194063) scale(0.1 -0.1)">
       <use xlink:href="#DejaVuSans-69"/>
       <use xlink:href="#DejaVuSans-6d" x="27.783203"/>
       <use xlink:href="#DejaVuSans-67" x="125.195312"/>
      </g>
     </g>
    </g>
    <g id="xtick_7">
     <g id="line2d_20">
      <g>
       <use xlink:href="#mc85d9b6be3" x="488.905524" y="160.2" style="stroke: #000000; stroke-width: 0.8"/>
      </g>
     </g>
     <g id="text_20">
      <!-- img -->
      <g transform="translate(479.47193 174.798438) scale(0.1 -0.1)">
       <use xlink:href="#DejaVuSans-69"/>
       <use xlink:href="#DejaVuSans-6d" x="27.783203"/>
       <use xlink:href="#DejaVuSans-67" x="125.195312"/>
      </g>
      <!-- to -->
      <g transform="translate(483.885993 185.99625) scale(0.1 -0.1)">
       <use xlink:href="#DejaVuSans-74"/>
       <use xlink:href="#DejaVuSans-6f" x="39.208984"/>
      </g>
      <!-- img -->
      <g transform="translate(479.47193 197.194063) scale(0.1 -0.1)">
       <use xlink:href="#DejaVuSans-69"/>
       <use xlink:href="#DejaVuSans-6d" x="27.783203"/>
       <use xlink:href="#DejaVuSans-67" x="125.195312"/>
      </g>
     </g>
    </g>
    <g id="xtick_8">
     <g id="line2d_21">
      <g>
       <use xlink:href="#mc85d9b6be3" x="525.312658" y="160.2" style="stroke: #000000; stroke-width: 0.8"/>
      </g>
     </g>
     <g id="text_21">
      <!-- img -->
      <g transform="translate(515.879064 174.798438) scale(0.1 -0.1)">
       <use xlink:href="#DejaVuSans-69"/>
       <use xlink:href="#DejaVuSans-6d" x="27.783203"/>
       <use xlink:href="#DejaVuSans-67" x="125.195312"/>
      </g>
      <!-- to -->
      <g transform="translate(520.293126 185.99625) scale(0.1 -0.1)">
       <use xlink:href="#DejaVuSans-74"/>
       <use xlink:href="#DejaVuSans-6f" x="39.208984"/>
      </g>
      <!-- rep -->
      <g transform="translate(517.118908 197.194063) scale(0.1 -0.1)">
       <use xlink:href="#DejaVuSans-72"/>
       <use xlink:href="#DejaVuSans-65" x="38.863281"/>
       <use xlink:href="#DejaVuSans-70" x="100.386719"/>
      </g>
     </g>
    </g>
    <g id="xtick_9">
     <g id="line2d_22">
      <g>
       <use xlink:href="#mc85d9b6be3" x="561.719791" y="160.2" style="stroke: #000000; stroke-width: 0.8"/>
      </g>
     </g>
     <g id="text_22">
      <!-- rep -->
      <g transform="translate(553.526041 174.798438) scale(0.1 -0.1)">
       <use xlink:href="#DejaVuSans-72"/>
       <use xlink:href="#DejaVuSans-65" x="38.863281"/>
       <use xlink:href="#DejaVuSans-70" x="100.386719"/>
      </g>
      <!-- to -->
      <g transform="translate(556.70026 185.99625) scale(0.1 -0.1)">
       <use xlink:href="#DejaVuSans-74"/>
       <use xlink:href="#DejaVuSans-6f" x="39.208984"/>
      </g>
      <!-- rep -->
      <g transform="translate(553.526041 197.194063) scale(0.1 -0.1)">
       <use xlink:href="#DejaVuSans-72"/>
       <use xlink:href="#DejaVuSans-65" x="38.863281"/>
       <use xlink:href="#DejaVuSans-70" x="100.386719"/>
      </g>
     </g>
    </g>
   </g>
   <g id="matplotlib.axis_4">
    <g id="ytick_6">
     <g id="line2d_23">
      <defs>
       <path id="m47edd33c8a" d="M 0 0 
L 3.5 0 
" style="stroke: #000000; stroke-width: 0.8"/>
      </defs>
      <g>
       <use xlink:href="#m47edd33c8a" x="583.2" y="160.2" style="stroke: #000000; stroke-width: 0.8"/>
      </g>
     </g>
     <g id="text_23">
      <!-- 0.470 -->
      <g transform="translate(590.2 163.999219) scale(0.1 -0.1)">
       <defs>
        <path id="DejaVuSans-37" d="M 525 4666 
L 3525 4666 
L 3525 4397 
L 1831 0 
L 1172 0 
L 2766 4134 
L 525 4134 
L 525 4666 
z
" transform="scale(0.015625)"/>
       </defs>
       <use xlink:href="#DejaVuSans-30"/>
       <use xlink:href="#DejaVuSans-2e" x="63.623047"/>
       <use xlink:href="#DejaVuSans-34" x="95.410156"/>
       <use xlink:href="#DejaVuSans-37" x="159.033203"/>
       <use xlink:href="#DejaVuSans-30" x="222.65625"/>
      </g>
     </g>
    </g>
    <g id="ytick_7">
     <g id="line2d_24">
      <g>
       <use xlink:href="#m47edd33c8a" x="583.2" y="132.48" style="stroke: #000000; stroke-width: 0.8"/>
      </g>
     </g>
     <g id="text_24">
      <!-- 0.472 -->
      <g transform="translate(590.2 136.279219) scale(0.1 -0.1)">
       <use xlink:href="#DejaVuSans-30"/>
       <use xlink:href="#DejaVuSans-2e" x="63.623047"/>
       <use xlink:href="#DejaVuSans-34" x="95.410156"/>
       <use xlink:href="#DejaVuSans-37" x="159.033203"/>
       <use xlink:href="#DejaVuSans-32" x="222.65625"/>
      </g>
     </g>
    </g>
    <g id="ytick_8">
     <g id="line2d_25">
      <g>
       <use xlink:href="#m47edd33c8a" x="583.2" y="104.76" style="stroke: #000000; stroke-width: 0.8"/>
      </g>
     </g>
     <g id="text_25">
      <!-- 0.474 -->
      <g transform="translate(590.2 108.559219) scale(0.1 -0.1)">
       <use xlink:href="#DejaVuSans-30"/>
       <use xlink:href="#DejaVuSans-2e" x="63.623047"/>
       <use xlink:href="#DejaVuSans-34" x="95.410156"/>
       <use xlink:href="#DejaVuSans-37" x="159.033203"/>
       <use xlink:href="#DejaVuSans-34" x="222.65625"/>
      </g>
     </g>
    </g>
    <g id="ytick_9">
     <g id="line2d_26">
      <g>
       <use xlink:href="#m47edd33c8a" x="583.2" y="77.04" style="stroke: #000000; stroke-width: 0.8"/>
      </g>
     </g>
     <g id="text_26">
      <!-- 0.476 -->
      <g transform="translate(590.2 80.839219) scale(0.1 -0.1)">
       <defs>
        <path id="DejaVuSans-36" d="M 2113 2584 
Q 1688 2584 1439 2293 
Q 1191 2003 1191 1497 
Q 1191 994 1439 701 
Q 1688 409 2113 409 
Q 2538 409 2786 701 
Q 3034 994 3034 1497 
Q 3034 2003 2786 2293 
Q 2538 2584 2113 2584 
z
M 3366 4563 
L 3366 3988 
Q 3128 4100 2886 4159 
Q 2644 4219 2406 4219 
Q 1781 4219 1451 3797 
Q 1122 3375 1075 2522 
Q 1259 2794 1537 2939 
Q 1816 3084 2150 3084 
Q 2853 3084 3261 2657 
Q 3669 2231 3669 1497 
Q 3669 778 3244 343 
Q 2819 -91 2113 -91 
Q 1303 -91 875 529 
Q 447 1150 447 2328 
Q 447 3434 972 4092 
Q 1497 4750 2381 4750 
Q 2619 4750 2861 4703 
Q 3103 4656 3366 4563 
z
" transform="scale(0.015625)"/>
       </defs>
       <use xlink:href="#DejaVuSans-30"/>
       <use xlink:href="#DejaVuSans-2e" x="63.623047"/>
       <use xlink:href="#DejaVuSans-34" x="95.410156"/>
       <use xlink:href="#DejaVuSans-37" x="159.033203"/>
       <use xlink:href="#DejaVuSans-36" x="222.65625"/>
      </g>
     </g>
    </g>
    <g id="ytick_10">
     <g id="line2d_27">
      <g>
       <use xlink:href="#m47edd33c8a" x="583.2" y="49.32" style="stroke: #000000; stroke-width: 0.8"/>
      </g>
     </g>
     <g id="text_27">
      <!-- 0.478 -->
      <g transform="translate(590.2 53.119219) scale(0.1 -0.1)">
       <defs>
        <path id="DejaVuSans-38" d="M 2034 2216 
Q 1584 2216 1326 1975 
Q 1069 1734 1069 1313 
Q 1069 891 1326 650 
Q 1584 409 2034 409 
Q 2484 409 2743 651 
Q 3003 894 3003 1313 
Q 3003 1734 2745 1975 
Q 2488 2216 2034 2216 
z
M 1403 2484 
Q 997 2584 770 2862 
Q 544 3141 544 3541 
Q 544 4100 942 4425 
Q 1341 4750 2034 4750 
Q 2731 4750 3128 4425 
Q 3525 4100 3525 3541 
Q 3525 3141 3298 2862 
Q 3072 2584 2669 2484 
Q 3125 2378 3379 2068 
Q 3634 1759 3634 1313 
Q 3634 634 3220 271 
Q 2806 -91 2034 -91 
Q 1263 -91 848 271 
Q 434 634 434 1313 
Q 434 1759 690 2068 
Q 947 2378 1403 2484 
z
M 1172 3481 
Q 1172 3119 1398 2916 
Q 1625 2713 2034 2713 
Q 2441 2713 2670 2916 
Q 2900 3119 2900 3481 
Q 2900 3844 2670 4047 
Q 2441 4250 2034 4250 
Q 1625 4250 1398 4047 
Q 1172 3844 1172 3481 
z
" transform="scale(0.015625)"/>
       </defs>
       <use xlink:href="#DejaVuSans-30"/>
       <use xlink:href="#DejaVuSans-2e" x="63.623047"/>
       <use xlink:href="#DejaVuSans-34" x="95.410156"/>
       <use xlink:href="#DejaVuSans-37" x="159.033203"/>
       <use xlink:href="#DejaVuSans-38" x="222.65625"/>
      </g>
     </g>
    </g>
    <g id="ytick_11">
     <g id="line2d_28">
      <g>
       <use xlink:href="#m47edd33c8a" x="583.2" y="21.6" style="stroke: #000000; stroke-width: 0.8"/>
      </g>
     </g>
     <g id="text_28">
      <!-- 0.480 -->
      <g transform="translate(590.2 25.399219) scale(0.1 -0.1)">
       <use xlink:href="#DejaVuSans-30"/>
       <use xlink:href="#DejaVuSans-2e" x="63.623047"/>
       <use xlink:href="#DejaVuSans-34" x="95.410156"/>
       <use xlink:href="#DejaVuSans-38" x="159.033203"/>
       <use xlink:href="#DejaVuSans-30" x="222.65625"/>
      </g>
     </g>
    </g>
   </g>
   <g id="LineCollection_1">
    <path d="M 452.498391 110.585449 
L 452.498391 46.240204 
" clip-path="url(#ped0e0134b9)" style="fill: none; stroke: #000000; stroke-width: 1.5"/>
    <path d="M 488.905524 114.233987 
L 488.905524 52.478789 
" clip-path="url(#ped0e0134b9)" style="fill: none; stroke: #000000; stroke-width: 1.5"/>
    <path d="M 525.312658 122.312117 
L 525.312658 59.196677 
" clip-path="url(#ped0e0134b9)" style="fill: none; stroke: #000000; stroke-width: 1.5"/>
    <path d="M 561.719791 128.071085 
L 561.719791 64.032047 
" clip-path="url(#ped0e0134b9)" style="fill: none; stroke: #000000; stroke-width: 1.5"/>
   </g>
   <g id="line2d_29">
    <defs>
     <path id="m949efcdeb3" d="M 5 0 
L -5 -0 
" style="stroke: #000000"/>
    </defs>
    <g clip-path="url(#ped0e0134b9)">
     <use xlink:href="#m949efcdeb3" x="452.498391" y="110.585449" style="stroke: #000000"/>
     <use xlink:href="#m949efcdeb3" x="488.905524" y="114.233987" style="stroke: #000000"/>
     <use xlink:href="#m949efcdeb3" x="525.312658" y="122.312117" style="stroke: #000000"/>
     <use xlink:href="#m949efcdeb3" x="561.719791" y="128.071085" style="stroke: #000000"/>
    </g>
   </g>
   <g id="line2d_30">
    <g clip-path="url(#ped0e0134b9)">
     <use xlink:href="#m949efcdeb3" x="452.498391" y="46.240204" style="stroke: #000000"/>
     <use xlink:href="#m949efcdeb3" x="488.905524" y="52.478789" style="stroke: #000000"/>
     <use xlink:href="#m949efcdeb3" x="525.312658" y="59.196677" style="stroke: #000000"/>
     <use xlink:href="#m949efcdeb3" x="561.719791" y="64.032047" style="stroke: #000000"/>
    </g>
   </g>
   <g id="patch_14">
    <path d="M 583.2 160.2 
L 583.2 21.6 
" style="fill: none; stroke: #000000; stroke-width: 0.8; stroke-linejoin: miter; stroke-linecap: square"/>
   </g>
   <g id="patch_15">
    <path d="M 431.018182 160.2 
L 583.2 160.2 
" style="fill: none; stroke: #000000; stroke-width: 0.8; stroke-linejoin: miter; stroke-linecap: square"/>
   </g>
   <g id="patch_16">
    <path d="M 431.018182 21.6 
L 583.2 21.6 
" style="fill: none; stroke: #000000; stroke-width: 0.8; stroke-linejoin: miter; stroke-linecap: square"/>
   </g>
   <g id="text_29">
    <!-- Overall average reward -->
    <g transform="translate(436.509716 15.6) scale(0.12 -0.12)">
     <defs>
      <path id="DejaVuSans-4f" d="M 2522 4238 
Q 1834 4238 1429 3725 
Q 1025 3213 1025 2328 
Q 1025 1447 1429 934 
Q 1834 422 2522 422 
Q 3209 422 3611 934 
Q 4013 1447 4013 2328 
Q 4013 3213 3611 3725 
Q 3209 4238 2522 4238 
z
M 2522 4750 
Q 3503 4750 4090 4092 
Q 4678 3434 4678 2328 
Q 4678 1225 4090 567 
Q 3503 -91 2522 -91 
Q 1538 -91 948 565 
Q 359 1222 359 2328 
Q 359 3434 948 4092 
Q 1538 4750 2522 4750 
z
" transform="scale(0.015625)"/>
     </defs>
     <use xlink:href="#DejaVuSans-4f"/>
     <use xlink:href="#DejaVuSans-76" x="78.710938"/>
     <use xlink:href="#DejaVuSans-65" x="137.890625"/>
     <use xlink:href="#DejaVuSans-72" x="199.414062"/>
     <use xlink:href="#DejaVuSans-61" x="240.527344"/>
     <use xlink:href="#DejaVuSans-6c" x="301.806641"/>
     <use xlink:href="#DejaVuSans-6c" x="329.589844"/>
     <use xlink:href="#DejaVuSans-20" x="357.373047"/>
     <use xlink:href="#DejaVuSans-61" x="389.160156"/>
     <use xlink:href="#DejaVuSans-76" x="450.439453"/>
     <use xlink:href="#DejaVuSans-65" x="509.619141"/>
     <use xlink:href="#DejaVuSans-72" x="571.142578"/>
     <use xlink:href="#DejaVuSans-61" x="612.255859"/>
     <use xlink:href="#DejaVuSans-67" x="673.535156"/>
     <use xlink:href="#DejaVuSans-65" x="737.011719"/>
     <use xlink:href="#DejaVuSans-20" x="798.535156"/>
     <use xlink:href="#DejaVuSans-72" x="830.322266"/>
     <use xlink:href="#DejaVuSans-65" x="869.185547"/>
     <use xlink:href="#DejaVuSans-77" x="930.708984"/>
     <use xlink:href="#DejaVuSans-61" x="1012.496094"/>
     <use xlink:href="#DejaVuSans-72" x="1073.775391"/>
     <use xlink:href="#DejaVuSans-64" x="1113.138672"/>
    </g>
   </g>
  </g>
 </g>
 <defs>
  <clipPath id="p9dabe0987e">
   <rect x="81" y="21.6" width="304.363636" height="138.6"/>
  </clipPath>
  <clipPath id="ped0e0134b9">
   <rect x="431.018182" y="21.6" width="152.181818" height="138.6"/>
  </clipPath>
 </defs>
</svg>
